<svg width="50" height="50" viewBox="0 0 50 50" fill="none" xmlns="http://www.w3.org/2000/svg">
<path d="M8.95667 0.0697784C8.52421 0.19471 7.91877 0.838589 7.79384 1.28066C7.73618 1.48247 7.68813 2.13596 7.68813 2.72218V3.80813H6.40998C4.20925 3.80813 3.00798 4.2502 1.72983 5.53796C0.893745 6.36443 0.470898 7.10442 0.192203 8.19036C0 8.91113 0 9.32436 0 26.4881C0 43.6519 0 44.0651 0.192203 44.7859C0.470898 45.8814 0.893745 46.6118 1.72983 47.4383C2.56591 48.2743 3.31551 48.7068 4.38223 48.9759C5.103 49.1585 5.4874 49.1681 17.2983 49.1681C29.1092 49.1681 29.4936 49.1585 30.2143 48.9759C31.3003 48.6972 32.0403 48.2743 32.8668 47.4383C34.2314 46.0832 34.5966 44.9973 34.5966 42.3545C34.5966 40.7784 34.5774 40.6247 34.3852 40.2306C34.2602 40 34.0008 39.6733 33.7989 39.5195C33.453 39.2408 33.3665 39.2216 32.6745 39.2216C31.973 39.2216 31.8961 39.2408 31.5502 39.5195C30.8582 40.0865 30.8102 40.2499 30.7525 42.2488C30.7045 43.9113 30.6852 44.0555 30.4738 44.3918C30.3489 44.5937 30.0702 44.8723 29.8588 45.0165L29.4648 45.276H17.2983H5.13183L4.73781 45.0165C4.52639 44.8723 4.24769 44.5937 4.12276 44.3918L3.89212 44.0267V26.4785V8.93996L4.15159 8.54594C4.29574 8.33451 4.57444 8.05582 4.77625 7.93089C5.103 7.72908 5.27598 7.70024 6.40037 7.67141L7.66891 7.63297L7.69774 8.92073C7.73618 10.0643 7.7554 10.2373 7.96682 10.5641C8.09176 10.7659 8.37045 11.0446 8.58187 11.1887C8.90862 11.4098 9.0816 11.4482 9.61016 11.4482C10.1387 11.4482 10.3117 11.4098 10.6384 11.1887C10.8499 11.0446 11.1286 10.7659 11.2535 10.5641C11.4649 10.2373 11.4841 10.0643 11.513 8.92073L11.5514 7.65219H13.4542H15.357L15.3955 8.92073C15.4243 10.0643 15.4435 10.2373 15.655 10.5641C15.7799 10.7659 16.0586 11.0446 16.27 11.1887C16.5967 11.4098 16.7697 11.4482 17.2983 11.4482C17.8268 11.4482 17.9998 11.4098 18.3266 11.1887C18.538 11.0446 18.8167 10.7659 18.9416 10.5641C19.1531 10.2373 19.1723 10.0643 19.2011 8.92073L19.2395 7.65219H21.1424H23.0452L23.0836 8.93035C23.1124 10.1316 23.1317 10.2373 23.3719 10.6025C23.7659 11.208 24.2368 11.4482 24.996 11.4482C25.515 11.4482 25.688 11.4002 26.0147 11.1887C26.2261 11.0446 26.5048 10.7659 26.6298 10.5641C26.8412 10.2373 26.8604 10.0643 26.8988 8.92073L26.9277 7.63297L28.1962 7.67141C29.3206 7.70024 29.4936 7.72908 29.8203 7.93089C30.4354 8.30569 30.6564 8.74775 30.7525 9.77604C30.8198 10.516 30.8774 10.7274 31.1081 11.0542C31.8769 12.1497 33.4722 12.1401 34.2506 11.035C34.4909 10.6986 34.5389 10.5256 34.5774 9.87214C34.6735 8.23841 34.0776 6.72962 32.8764 5.53796C31.5886 4.2502 30.3777 3.80813 28.1962 3.80813H26.9277L26.8892 2.52998C26.8604 1.39598 26.8412 1.223 26.6298 0.896252C26.5048 0.694439 26.2261 0.415745 26.0147 0.271591C25.688 0.0505562 25.515 0.0121155 24.9864 0.0121155C24.4579 0.0121155 24.2849 0.0505562 23.9581 0.271591C23.7467 0.415745 23.468 0.694439 23.3431 0.896252C23.1317 1.223 23.1124 1.39598 23.0836 2.52998L23.0452 3.80813H21.1424H19.2395L19.2011 2.52998C19.1723 1.32871 19.1531 1.223 18.9128 0.857811C18.5188 0.252369 18.0479 0.0121155 17.2887 0.0121155C16.7697 0.0121155 16.5967 0.0601654 16.27 0.271591C16.0586 0.415745 15.7799 0.694439 15.655 0.896252C15.4435 1.223 15.4243 1.39598 15.3955 2.52998L15.357 3.80813H13.4542H11.5514L11.513 2.52998C11.4841 1.32871 11.4649 1.223 11.2247 0.857811C11.0805 0.646385 10.8114 0.377304 10.6288 0.261982C10.2348 0.0121155 9.42757 -0.0743752 8.95667 0.0697784Z" fill="white"/>
<path d="M42.0638 9.14189C41.3143 9.33409 40.5743 9.69928 39.9112 10.199C38.9886 10.8909 22.9396 27.036 22.5456 27.6607C22.3534 27.9586 22.1132 28.4295 22.0074 28.7082C21.7672 29.3136 20.5659 35.195 20.5659 35.7524C20.5659 36.6366 21.3443 37.5111 22.2093 37.6072C22.709 37.6552 28.6192 36.502 29.4553 36.1849C29.7436 36.0792 30.2337 35.8197 30.5317 35.6179C30.868 35.3968 34.5679 31.7546 39.6517 26.6612C47.8588 18.4253 48.224 18.0505 48.5603 17.3586C49.406 15.648 49.3964 13.8605 48.5411 12.1114C47.8876 10.8044 46.7632 9.8146 45.3505 9.31487C44.4664 9.00735 42.9384 8.92085 42.0638 9.14189ZM44.1877 12.986C45.1968 13.4088 45.6196 14.514 45.1583 15.5326C45.0142 15.869 43.1306 17.8006 36.7783 24.153C32.2711 28.6505 28.4462 32.3985 28.2733 32.485C28.0042 32.6195 25.3614 33.2153 25.0346 33.2153C24.8905 33.2153 25.4575 30.3323 25.6881 29.8902C25.938 29.4289 42.2849 13.1589 42.6693 12.9956C43.1114 12.8034 43.736 12.8034 44.1877 12.986Z" fill="white"/>
<path d="M8.95664 18.5214C8.50496 18.6559 7.90913 19.2902 7.77459 19.7803C7.55356 20.6356 7.88991 21.5293 8.62028 21.981L8.98547 22.2117H15.3858H21.7766L22.1706 21.9522C22.7664 21.5582 23.0163 21.0873 23.0163 20.3377C23.0163 19.5881 22.7664 19.1172 22.1706 18.7232L21.7766 18.4637L15.53 18.4445C11.7532 18.4349 9.14884 18.4637 8.95664 18.5214Z" fill="white"/>
<path d="M8.95664 26.2094C8.50496 26.3439 7.90913 26.9782 7.77459 27.4683C7.55356 28.3236 7.88991 29.2173 8.62028 29.669C8.98547 29.8997 9.0143 29.8997 11.5418 29.8997H14.0885L14.4825 29.6402C15.0783 29.2462 15.3282 28.7753 15.3282 28.0257C15.3282 27.2761 15.0783 26.8052 14.4825 26.4112L14.0981 26.1517L11.6859 26.1325C10.3309 26.1229 9.13923 26.1517 8.95664 26.2094Z" fill="white"/>
<path d="M8.95664 33.8976C8.50496 34.0321 7.90913 34.6664 7.77459 35.1565C7.55356 36.0118 7.88991 36.9056 8.62028 37.3572C8.98547 37.5879 9.0143 37.5879 11.5418 37.5879H14.0885L14.4825 37.3284C15.0783 36.9344 15.3282 36.4635 15.3282 35.7139C15.3282 34.9643 15.0783 34.4934 14.4825 34.0994L14.0981 33.8399L11.6859 33.8207C10.3309 33.8111 9.13923 33.8399 8.95664 33.8976Z" fill="white"/>
</svg>
