<svg width="381" height="465" viewBox="0 0 381 465" fill="none" xmlns="http://www.w3.org/2000/svg">
<g filter="url(#filter0_d_19_94)">
<path d="M473.198 348.174C429.883 418.074 336.325 438.524 264.231 393.849C192.138 349.174 168.809 256.293 212.125 186.392C255.441 116.491 348.998 96.0416 421.092 140.716C493.186 185.391 516.514 278.273 473.198 348.174Z" fill="#EC9E9E" fill-opacity="0.51" shape-rendering="crispEdges"/>
</g>
<g filter="url(#filter1_d_19_94)">
<path d="M339.504 348.301C296.188 418.201 202.63 438.651 130.537 393.976C58.4434 349.301 35.1145 256.42 78.4305 186.519C121.746 116.618 215.304 96.1686 287.398 140.843C359.491 185.518 382.82 278.4 339.504 348.301Z" fill="#DB7878" fill-opacity="0.4" shape-rendering="crispEdges"/>
</g>
<defs>
<filter id="filter0_d_19_94" x="186.352" y="117.056" width="312.619" height="308.453" filterUnits="userSpaceOnUse" color-interpolation-filters="sRGB">
<feFlood flood-opacity="0" result="BackgroundImageFix"/>
<feColorMatrix in="SourceAlpha" type="matrix" values="0 0 0 0 0 0 0 0 0 0 0 0 0 0 0 0 0 0 127 0" result="hardAlpha"/>
<feOffset dy="4"/>
<feGaussianBlur stdDeviation="2"/>
<feComposite in2="hardAlpha" operator="out"/>
<feColorMatrix type="matrix" values="0 0 0 0 0 0 0 0 0 0 0 0 0 0 0 0 0 0 0.25 0"/>
<feBlend mode="normal" in2="BackgroundImageFix" result="effect1_dropShadow_19_94"/>
<feBlend mode="normal" in="SourceGraphic" in2="effect1_dropShadow_19_94" result="shape"/>
</filter>
<filter id="filter1_d_19_94" x="52.6578" y="117.183" width="312.619" height="308.453" filterUnits="userSpaceOnUse" color-interpolation-filters="sRGB">
<feFlood flood-opacity="0" result="BackgroundImageFix"/>
<feColorMatrix in="SourceAlpha" type="matrix" values="0 0 0 0 0 0 0 0 0 0 0 0 0 0 0 0 0 0 127 0" result="hardAlpha"/>
<feOffset dy="4"/>
<feGaussianBlur stdDeviation="2"/>
<feComposite in2="hardAlpha" operator="out"/>
<feColorMatrix type="matrix" values="0 0 0 0 0 0 0 0 0 0 0 0 0 0 0 0 0 0 0.25 0"/>
<feBlend mode="normal" in2="BackgroundImageFix" result="effect1_dropShadow_19_94"/>
<feBlend mode="normal" in="SourceGraphic" in2="effect1_dropShadow_19_94" result="shape"/>
</filter>
</defs>
</svg>
