<svg width="44" height="40" viewBox="0 0 44 40" fill="none" xmlns="http://www.w3.org/2000/svg">
<path d="M6.57449 0.0114403C6.53152 0.0216827 6.38543 0.0626488 6.25652 0.0933723C5.90418 0.185543 5.44013 0.718086 5.28544 1.20967C5.16513 1.59883 5.15654 3.08381 5.17372 16.1516L5.19951 30.6532L5.46591 31.0526C5.93856 31.7491 6.14481 31.831 7.61432 31.9129C9.1354 32.0051 9.55649 32.0563 10.9573 32.3226C14.7385 33.0599 18.0126 34.9034 20.3931 37.6275L20.797 38.0884V23.3512C20.797 15.2402 20.7626 8.42974 20.7196 8.21468C20.5134 7.17007 18.4939 4.50735 17.0158 3.3296C14.8244 1.59883 12.0229 0.472298 9.10962 0.165058C8.00104 0.0421638 6.70339 -0.0295258 6.57449 0.0114403Z" fill="#32314E"/>
<path d="M35.9647 0.0525169C32.3554 0.308548 29.4765 1.3634 26.9843 3.33996C25.5062 4.49722 23.4867 7.17018 23.2805 8.21479C23.2375 8.42985 23.2031 15.2403 23.2031 23.3411V38.0782L23.6586 37.5764C26.1078 34.8318 29.2702 33.06 33.0429 32.3227C34.4436 32.0564 34.8647 32.0052 36.3858 31.913C37.8553 31.8311 38.0616 31.7492 38.5342 31.0528L38.8006 30.6533L38.8264 16.203C38.8436 6.11533 38.8264 1.62967 38.7576 1.3634C38.6545 0.912785 38.3108 0.410961 37.9928 0.216377C37.6491 0.00131226 37.185 -0.0294113 35.9647 0.0525169Z" fill="#32314E"/>
<path d="M0.902575 6.6991C0.49008 6.92441 0.309613 7.14972 0.129146 7.66178C0.0174288 7.9895 0.000241445 9.79196 0.000241445 23.2489C0.000241445 39.7783 -0.0255395 38.8464 0.455705 39.4608C0.919762 40.0651 1.42679 40.1368 2.7674 39.7988C7.89781 38.5186 13.2946 38.3445 17.4024 39.3277C17.961 39.4608 18.4422 39.5633 18.4594 39.5428C18.511 39.4711 17.643 38.6211 16.9297 38.0578C15.1509 36.6445 12.8563 35.6409 10.2009 35.1186C9.78841 35.0366 8.62827 34.9137 7.62281 34.8318C6.50564 34.7396 5.66346 34.627 5.44002 34.5246C4.23691 34.0125 3.29161 32.8348 2.92208 31.401C2.7588 30.7763 2.75021 30.3871 2.75021 18.6301V6.50452H2.00256C1.45257 6.50452 1.15179 6.56596 0.902575 6.6991Z" fill="#32314E"/>
<path d="M41.2497 18.6301C41.2497 30.3871 41.2411 30.7763 41.0778 31.401C40.7083 32.8348 39.763 34.0125 38.5599 34.5246C38.3365 34.627 37.5115 34.7396 36.3943 34.8318C35.406 34.9035 34.3232 35.0161 33.9881 35.0776C31.324 35.5692 28.8577 36.6343 27.0702 38.0578C26.3655 38.6211 25.4889 39.4711 25.5405 39.5428C25.5577 39.5633 26.0389 39.4608 26.5975 39.3277C30.7053 38.3445 36.1021 38.5186 41.2325 39.7988C42.5731 40.1368 43.0802 40.0651 43.5442 39.4608C44.0255 38.8464 43.9997 39.7783 43.9997 23.2285C43.9997 8.66542 43.9911 7.96901 43.8364 7.57985C43.527 6.78103 43.0544 6.50452 41.9802 6.50452H41.2497V18.6301Z" fill="#32314E"/>
</svg>
