<svg width="25" height="25" viewBox="0 0 25 25" fill="none" xmlns="http://www.w3.org/2000/svg">
<g clip-path="url(#clip0_467_1056)">
<path d="M11.8167 0.0767498C11.5248 0.162899 11.1658 0.48835 11.0271 0.789869L10.9122 1.02917V7.69134C10.9122 11.3574 10.8978 14.3583 10.8739 14.3583C10.8548 14.3583 10.1273 13.6452 9.261 12.7741C8.38994 11.9031 7.58589 11.1373 7.47102 11.0703C7.18865 10.9028 6.6574 10.8597 6.33195 10.9841C6.05914 11.0894 5.72412 11.3909 5.58532 11.6542C5.43217 11.9366 5.43696 12.5731 5.5949 12.8746C5.74805 13.1761 11.3286 18.7567 11.6301 18.9098C11.9412 19.0725 12.5634 19.0725 12.8745 18.9098C13.176 18.7567 18.7565 13.1761 18.9097 12.8746C19.0676 12.5731 19.0724 11.9366 18.9192 11.6542C18.7804 11.3909 18.4454 11.0894 18.1726 10.9841C17.8472 10.8597 17.3159 10.9028 17.0335 11.0703C16.9187 11.1373 16.1146 11.9031 15.2436 12.7741C14.3773 13.6452 13.6498 14.3583 13.6307 14.3583C13.6067 14.3583 13.5924 11.3574 13.5924 7.69134V1.02917L13.4775 0.789869C13.1951 0.17247 12.482 -0.129049 11.8167 0.0767498Z" fill="#31304D"/>
<path d="M1.07668 16.3636C0.617217 16.4833 0.200832 16.8614 0.0763945 17.2825C-0.0145403 17.584 -0.0288984 19.2017 0.0524643 19.7952C0.387487 22.2026 2.3019 24.117 4.70928 24.452C5.22617 24.5238 19.278 24.5238 19.7949 24.452C22.2023 24.117 24.1167 22.2026 24.4517 19.7952C24.5331 19.2017 24.5187 17.584 24.4278 17.2825C24.3368 16.9714 24.0209 16.6125 23.7003 16.4593C23.1882 16.2152 22.5373 16.3588 22.1353 16.8087C21.8194 17.1629 21.7763 17.3543 21.7763 18.4503C21.7763 19.7904 21.6327 20.2642 21.044 20.896C20.7186 21.2454 20.4123 21.456 19.9672 21.6283L19.6465 21.7527L12.3957 21.767C5.29796 21.7766 5.14002 21.7766 4.7715 21.6809C4.26896 21.5565 3.92437 21.3507 3.51756 20.9438C2.87623 20.2977 2.72786 19.8287 2.72786 18.4503C2.72786 17.3543 2.68479 17.1629 2.36891 16.8087C2.04824 16.4545 1.48349 16.2583 1.07668 16.3636Z" fill="#31304D"/>
</g>
<defs>
<clipPath id="clip0_467_1056">
<rect width="24.5045" height="24.5045" fill="white"/>
</clipPath>
</defs>
</svg>
