<svg width="18" height="18" viewBox="0 0 18 18" fill="none" xmlns="http://www.w3.org/2000/svg">
<path d="M13.2569 0.0280743C12.8675 0.128912 13.017 -0.0136509 6.69669 6.31469C0.967378 12.0484 0.657967 12.3649 0.567578 12.5735C0.484141 12.7682 0.442423 13.0186 0.230355 14.625C0.070435 15.8142 -0.009525 16.527 0.000904571 16.6521C0.0495759 17.2328 0.553672 17.737 1.13077 17.7857C1.26288 17.7961 1.95471 17.7196 3.17149 17.5562C4.98971 17.3163 5.01405 17.3093 5.25741 17.1911C5.48686 17.0764 5.83103 16.7391 11.536 11.0262C17.2896 5.2646 17.5747 4.97253 17.6721 4.75695C17.759 4.55875 17.7729 4.48921 17.7729 4.20061C17.7729 3.8981 17.7625 3.84942 17.6582 3.62689C17.5504 3.40087 17.4357 3.2757 15.972 1.81183C14.5223 0.361877 14.3833 0.233225 14.1643 0.132389C13.907 0.0106888 13.5107 -0.0345135 13.2569 0.0280743ZM14.7483 3.05316L15.8956 4.20061L15.0091 5.08727L14.1225 5.97394L12.9683 4.81953L11.8107 3.66166L12.6867 2.78542C13.17 2.30211 13.5732 1.90571 13.5837 1.90571C13.5941 1.90571 14.1191 2.42033 14.7483 3.05316ZM11.7585 6.04348L12.9058 7.19092L8.68178 11.4121L4.45781 15.6368L3.24102 15.7933C1.66268 15.995 1.81565 15.9845 1.8226 15.9011C1.82608 15.8628 1.90256 15.2683 1.98948 14.5798L2.15287 13.328L6.36294 9.11029C8.68178 6.79453 10.5834 4.89603 10.5939 4.89603C10.6043 4.89603 11.1293 5.41412 11.7585 6.04348Z" fill="white"/>
</svg>
