<svg width="86" height="83" viewBox="0 0 86 83" fill="none" xmlns="http://www.w3.org/2000/svg">
<path d="M44.5144 47.8262C49.4444 48.4602 53.8018 50.6475 57.5708 54.3881C60.4016 57.2094 62.1827 60.0623 63.3277 63.6603C63.7412 64.9441 64.3932 67.9556 64.266 68.019C64.2501 68.0348 63.773 68.3994 63.2005 68.8432C58.3024 72.6471 52.4024 75.088 45.7867 76.039C43.9419 76.3084 38.5667 76.3084 36.722 76.039C30.1063 75.088 24.2063 72.6471 19.3081 68.8432C18.7356 68.3994 18.2585 68.0348 18.2426 68.019C18.2108 68.0031 18.3062 67.4008 18.4334 66.6876C19.8806 58.4932 25.7648 51.6302 33.7163 48.8723C37.2308 47.6519 40.5705 47.319 44.5144 47.8262Z" fill="white"/>
<path d="M44.594 18.4882C48.681 19.6452 51.8776 22.831 53.118 26.9678C53.6746 28.854 53.7064 31.5484 53.2134 33.4029C51.7344 38.9028 46.9317 42.5799 41.2543 42.5799C35.5769 42.5799 30.7742 38.9028 29.2952 33.4029C28.8022 31.5484 28.834 28.854 29.3906 26.9678C30.7901 22.2763 34.416 19.0904 39.505 18.1078C40.4274 17.9334 43.433 18.1553 44.594 18.4882Z" fill="white"/>
<path fill-rule="evenodd" clip-rule="evenodd" d="M38.3918 0.0389099C38.0896 0.07061 37.1513 0.181564 36.3244 0.260811C31.0764 0.831406 25.2718 2.79679 20.5804 5.58636C14.6167 9.13673 9.76629 13.9709 6.20401 19.9146C3.42097 24.5428 1.57622 29.9317 0.828776 35.606C0.574327 37.5555 0.574327 43.4834 0.828776 45.4329C2.13283 55.3074 6.49026 63.6603 13.8693 70.4915C17.9405 74.2797 23.0135 77.2277 28.5319 79.0346C32.8893 80.477 36.3403 81 41.2543 81C44.8802 81 46.4864 80.8574 49.6829 80.2075C60.6401 77.9727 70.4205 70.967 76.3046 61.1243C79.0877 56.4961 80.9324 51.1072 81.6799 45.4329C81.9343 43.4834 81.9343 37.5555 81.6799 35.606C80.9324 29.9317 79.0877 24.5428 76.3046 19.9146C72.7423 13.9709 67.8919 9.13673 61.9283 5.58636C57.3323 2.84434 51.8457 0.974052 46.3433 0.260811C44.9438 0.07061 39.3778 -0.0720367 38.3918 0.0389099ZM68.6394 17.3787C62.7393 10.3572 53.7859 5.71317 44.5144 4.85727C35.3384 4.01723 26.0828 6.8068 18.7833 12.6078C9.75039 19.7878 4.6137 31.3265 5.44066 42.6909C5.71101 46.6217 6.49026 50.2513 7.7307 53.3895C8.44633 55.2123 10.2116 58.6358 11.2135 60.1257C12.1199 61.473 13.9329 63.8188 14.0601 63.8188C14.1078 63.8188 14.3623 63.1372 14.6008 62.313C15.4119 59.6027 17.0658 56.3693 18.7992 54.0711C21.8049 50.1086 26.0987 46.7485 30.3925 45.0208C31.0287 44.7672 31.5535 44.5295 31.5535 44.4819C31.5535 44.4344 31.2036 44.1174 30.7742 43.8004C28.9295 42.4056 27.0529 40.0915 25.9238 37.8567C24.5243 35.083 23.92 31.802 24.2381 28.6796C25.4626 16.6496 38.4077 9.65977 49.1263 15.2072C54.2789 17.8859 57.6822 22.8786 58.2706 28.6796C58.6682 32.547 57.714 36.3351 55.4557 39.8379C54.8673 40.7572 52.4342 43.309 51.4323 44.054L50.8757 44.4661L51.5118 44.7197C54.3266 45.8609 57.4595 47.7787 59.7496 49.7758C63.3914 52.9616 66.5402 57.7958 67.8919 62.2972C68.1464 63.1372 68.4008 63.8188 68.4485 63.8188C68.4962 63.8188 68.9574 63.264 69.4981 62.5825C72.4402 58.8577 74.603 54.5941 75.8275 50.1403C79.0081 38.5699 76.3841 26.5874 68.6394 17.3787ZM53.118 26.9678C51.8776 22.831 48.681 19.6452 44.594 18.4882C43.433 18.1553 40.4274 17.9334 39.505 18.1078C34.416 19.0904 30.7901 22.2763 29.3906 26.9678C28.834 28.854 28.8022 31.5484 29.2952 33.4029C30.7742 38.9028 35.5769 42.5799 41.2543 42.5799C46.9317 42.5799 51.7344 38.9028 53.2134 33.4029C53.7064 31.5484 53.6746 28.854 53.118 26.9678ZM57.5708 54.3881C53.8018 50.6475 49.4444 48.4602 44.5144 47.8262C40.5705 47.319 37.2308 47.6519 33.7163 48.8723C25.7648 51.6302 19.8806 58.4932 18.4334 66.6876C18.3062 67.4008 18.2108 68.0031 18.2426 68.019C18.2585 68.0348 18.7356 68.3994 19.3081 68.8432C24.2063 72.6471 30.1063 75.088 36.722 76.039C38.5667 76.3084 43.9419 76.3084 45.7867 76.039C52.4024 75.088 58.3024 72.6471 63.2005 68.8432C63.773 68.3994 64.2501 68.0348 64.266 68.019C64.3932 67.9556 63.7412 64.9441 63.3277 63.6603C62.1827 60.0623 60.4016 57.2094 57.5708 54.3881Z" fill="white"/>
<ellipse cx="69" cy="65.5" rx="17" ry="17.5" fill="#59B37D"/>
<line x1="61" y1="66" x2="77" y2="66" stroke="white" stroke-width="4" stroke-linecap="round"/>
<line x1="69" y1="74" x2="69" y2="58" stroke="white" stroke-width="4" stroke-linecap="round"/>
</svg>
