<svg width="25" height="34" viewBox="0 0 25 34" fill="none" xmlns="http://www.w3.org/2000/svg">
<g filter="url(#filter0_d_523_131)">
<path d="M11.6061 0.0260429C9.89741 0.190142 8.3774 0.761999 7.14303 1.70681C4.34786 3.85003 3.31242 7.79336 4.6794 11.0952C5.11806 12.1444 5.67914 12.96 6.52585 13.7506C7.57149 14.7352 8.73445 15.3419 10.5248 15.8342C10.5707 15.8491 10.586 16.1723 10.586 17.2464V18.6388H9.0711C7.6378 18.6388 7.54089 18.6437 7.38277 18.7382C7.06652 18.9272 7.01552 19.1311 7.01552 20.225C7.01552 21.3489 7.06142 21.5179 7.41847 21.7119C7.6072 21.8163 7.66841 21.8213 9.0966 21.8213H10.5809L10.5962 23.3827C10.6115 24.8745 10.6166 24.9541 10.7186 25.0833C10.9737 25.4215 10.9941 25.4265 12.208 25.4414C13.2945 25.4563 13.32 25.4563 13.4883 25.3419C13.5852 25.2773 13.7127 25.1629 13.7688 25.0883C13.8708 24.9541 13.8759 24.8795 13.8913 23.3827L13.9066 21.8213H15.396C17.0843 21.8213 17.1404 21.8113 17.3546 21.4433C17.4617 21.2594 17.4719 21.1947 17.4719 20.23C17.4719 19.0863 17.4413 18.967 17.1149 18.7531C16.9517 18.6388 16.9211 18.6388 15.4215 18.6388H13.9015L13.9117 17.2414L13.927 15.8391L14.3095 15.7447C16.1356 15.2822 17.829 14.1534 18.9154 12.6716C19.3031 12.1395 19.854 11.0952 20.0427 10.5283C20.7262 8.47462 20.5528 6.27172 19.5581 4.37216C18.4819 2.31347 16.5844 0.831617 14.284 0.244841C13.5036 0.0409622 12.3661 -0.0485458 11.6061 0.0260429ZM12.764 3.3279C15.3245 3.60637 17.0741 5.52085 17.0741 8.04696C17.0792 9.19565 16.6864 10.2151 15.906 11.0902C15.3041 11.7715 14.3605 12.3483 13.4679 12.582C12.8558 12.7412 11.652 12.7412 11.0502 12.582C9.42815 12.1544 8.14787 10.9759 7.6327 9.44926C7.29606 8.43483 7.35726 7.19167 7.79592 6.13746C8.51002 4.43183 10.0963 3.39254 12.157 3.27817C12.2182 3.27817 12.4937 3.29806 12.764 3.3279Z" fill="#FFFFFE"/>
</g>
<defs>
<filter id="filter0_d_523_131" x="0.0803223" y="0" width="24.3735" height="33.4482" filterUnits="userSpaceOnUse" color-interpolation-filters="sRGB">
<feFlood flood-opacity="0" result="BackgroundImageFix"/>
<feColorMatrix in="SourceAlpha" type="matrix" values="0 0 0 0 0 0 0 0 0 0 0 0 0 0 0 0 0 0 127 0" result="hardAlpha"/>
<feOffset dy="4"/>
<feGaussianBlur stdDeviation="2"/>
<feComposite in2="hardAlpha" operator="out"/>
<feColorMatrix type="matrix" values="0 0 0 0 0 0 0 0 0 0 0 0 0 0 0 0 0 0 0.25 0"/>
<feBlend mode="normal" in2="BackgroundImageFix" result="effect1_dropShadow_523_131"/>
<feBlend mode="normal" in="SourceGraphic" in2="effect1_dropShadow_523_131" result="shape"/>
</filter>
</defs>
</svg>
