<svg width="34" height="46" viewBox="0 0 34 46" fill="none" xmlns="http://www.w3.org/2000/svg">
<path d="M33.3072 41.4893C33.2015 41.9152 32.9838 42.5064 32.7993 42.845L32.7984 42.8467C32.3795 43.6086 31.5381 44.4474 30.7887 44.8599L30.7887 44.86L30.7868 44.861C30.7427 44.885 30.6987 44.9099 30.6542 44.9352C30.4573 45.0468 30.2485 45.1652 29.9536 45.2487C29.6016 45.3484 29.129 45.4029 28.3265 45.4374C26.856 45.5007 24.1279 45.5005 18.6656 45.4999C18.1382 45.4999 17.5853 45.4998 17.0056 45.4998C11.7818 45.4998 8.773 45.4952 7.01243 45.4757C6.13305 45.4659 5.5585 45.4524 5.17265 45.4334C4.79566 45.4149 4.5656 45.3901 4.39613 45.3464L4.39612 45.3464L4.38935 45.3446C2.52076 44.8343 1.05563 43.2319 0.65484 41.2945L0.654828 41.2945L0.654131 41.291C0.640637 41.2234 0.633609 41.1306 0.62849 41.0493C0.622606 40.9559 0.617108 40.8359 0.611903 40.6928C0.601473 40.4062 0.591837 40.0161 0.58295 39.5388C0.565163 38.5838 0.550221 37.2712 0.538137 35.7215C0.513965 32.6217 0.50119 28.5675 0.500079 24.5143C0.498968 20.461 0.509521 16.4074 0.532026 13.3087C0.543276 11.7596 0.557523 10.4477 0.574823 9.49352C0.583467 9.0167 0.592911 8.62704 0.60321 8.34087C0.608349 8.19806 0.613797 8.07828 0.619649 7.98509C0.62472 7.90435 0.631733 7.81119 0.645424 7.74318L0.645985 7.74047C1.00903 5.98821 2.23374 4.52558 3.9023 3.83057L3.90493 3.82949L4.50916 3.58183L4.59861 3.54517L4.69528 3.54449L8.6228 3.51697L12.2545 3.49153L12.3716 3.2748L12.3741 3.27031C13.159 1.85234 14.5403 0.874104 16.1398 0.572083L16.1426 0.571552C18.2188 0.192146 20.5874 1.35603 21.6116 3.22647L21.6123 3.22773L21.7557 3.49152L25.3884 3.51697L29.3159 3.54449L29.4126 3.54517L29.502 3.58183L30.1063 3.82948L30.1089 3.83058C31.7775 4.52558 33.0022 5.98821 33.3652 7.74047L33.3652 7.74046L33.3665 7.7468C33.4001 7.92014 33.4201 8.22827 33.436 8.7561C33.4525 9.29975 33.465 10.1145 33.4744 11.3305C33.4933 13.7635 33.5 17.8174 33.5 24.5542V24.5624C33.5 32.4389 33.5 36.4696 33.4778 38.6175C33.4557 40.7455 33.4134 41.0724 33.3072 41.4893ZM33.3072 41.4893C33.3071 41.4898 33.3069 41.4904 33.3068 41.491L32.8223 41.3675L33.3076 41.4878C33.3075 41.4883 33.3074 41.4888 33.3072 41.4893ZM4.09455 4.29214C2.57508 4.92504 1.46436 6.25506 1.13559 7.84191C0.948986 8.76833 0.957872 40.2576 1.14447 41.1932C1.50879 42.9543 2.84166 44.4036 4.52107 44.8622C4.98313 44.9815 6.55591 44.9998 17.0056 44.9998C28.4094 44.9998 29.3862 45.0204 30.1603 44.6344C30.2813 44.5741 30.3974 44.5038 30.5475 44.4219L4.09455 4.29214ZM17.7581 3.85685L17.7581 3.85693L17.7495 3.85379C16.566 3.42218 15.3401 4.01938 14.8575 5.42586C14.7113 5.855 14.5297 6.2734 14.0528 6.49768C13.84 6.59777 13.5998 6.64404 13.3428 6.66889C13.0842 6.6939 12.7729 6.70002 12.4028 6.70002H11.7336L11.7472 7.02285L11.7472 7.02301C11.772 7.61633 11.8759 8.01476 12.0473 8.30917C12.2145 8.59626 12.4732 8.83108 12.897 9.0478L12.897 9.04777L12.9016 9.05019L13.3346 9.27731H16.9967H20.6642L21.092 9.0639L21.092 9.06387L21.0977 9.06107C21.5126 8.86069 21.7773 8.62355 21.9515 8.32706C22.13 8.02308 22.2394 7.61246 22.264 7.02301L22.264 7.02285L22.2776 6.70002H21.6084C21.2398 6.70002 20.9294 6.69331 20.6708 6.66762C20.4137 6.64207 20.1744 6.59505 19.9624 6.49572C19.4883 6.27365 19.303 5.86355 19.1552 5.43957C19.0666 5.19023 18.912 4.84657 18.82 4.67863C18.7515 4.56577 18.5932 4.39317 18.3741 4.22023C18.1548 4.0471 17.9268 3.91487 17.7581 3.85685ZM26.8244 6.70002H25.4139V6.95217C25.4139 8.56416 24.9278 9.83955 23.8869 10.914C23.2133 11.6094 22.1746 12.2082 21.2871 12.3776C21.1723 12.4005 20.9658 12.4136 20.7405 12.424C20.4924 12.4355 20.1676 12.4453 19.7875 12.4534C19.0266 12.4695 18.0343 12.4787 16.97 12.4787C14.9123 12.4787 13.7732 12.4703 13.0267 12.3898C12.2311 12.3041 11.8478 12.1321 11.3114 11.8404C10.4322 11.3656 9.56695 10.4309 9.14949 9.51846C8.73519 8.62304 8.59725 7.95464 8.59725 6.93382V6.70241L7.17141 6.70919H7.16903C5.43457 6.70919 5.2543 6.73584 4.97463 6.8472C4.55893 7.01652 4.07153 7.48029 3.84522 7.96258L3.84526 7.96259L3.84257 7.96814L3.68801 8.28722L3.66155 24.3163C3.66155 24.3163 3.66155 24.3163 3.66155 24.3164C3.66051 25.3519 3.65942 26.3232 3.6584 27.2344C3.65061 34.1755 3.64673 37.6312 3.7024 39.4269C3.73434 40.4569 3.78559 40.8855 3.84658 41.1025C3.87954 41.2198 3.89657 41.2412 3.9682 41.331C4.00052 41.3716 4.04395 41.4261 4.10498 41.5096C4.2394 41.6868 4.48675 41.897 4.78594 42.0514L4.78598 42.0513L4.79443 42.0559L5.24294 42.2984H16.9345C21.1997 42.2984 24.1768 42.2915 26.1172 42.2755C27.0878 42.2675 27.7963 42.2572 28.276 42.2444C28.5163 42.238 28.6953 42.2311 28.8196 42.2238C28.882 42.2201 28.9263 42.2166 28.9554 42.2135C28.9596 42.2131 28.9632 42.2126 28.9662 42.2123C29.3776 42.0763 29.8611 41.6494 30.1084 41.1546C30.1086 41.1542 30.1088 41.1538 30.109 41.1534L30.323 40.719V24.5084V8.27988L30.1811 7.96609C30.1811 7.96601 30.1811 7.96593 30.181 7.96585C29.966 7.49264 29.4846 7.03002 29.0336 6.84956C28.7048 6.72515 28.546 6.70002 26.8244 6.70002Z" fill="#9795CE" stroke="#9795CE"/>
<path d="M22.3468 20.6987L22.3468 20.6986L22.3517 20.6964C22.9216 20.4365 23.5762 20.5509 24.0376 20.9611L24.0377 20.961L24.0458 20.9685C24.2728 21.1794 24.4477 21.4279 24.5331 21.7212C24.6194 22.0173 24.6024 22.3179 24.5119 22.6107L24.5121 22.6107L24.5077 22.6235C24.4778 22.7117 24.4253 22.7847 24.4086 22.8079L24.4068 22.8104C24.3792 22.8489 24.3459 22.8911 24.3106 22.934C24.2394 23.0208 24.1429 23.1312 24.0277 23.2594C23.7963 23.5167 23.4749 23.861 23.0947 24.2609C22.3335 25.0616 21.3273 26.0951 20.3124 27.1221C19.2975 28.1491 18.2718 29.1717 17.4716 29.9505C17.0719 30.3395 16.7261 30.67 16.4652 30.9105C16.3351 31.0303 16.2227 31.131 16.1334 31.2064C16.0891 31.2439 16.0464 31.2786 16.0077 31.3076C15.9806 31.3279 15.9215 31.3717 15.8526 31.4029C15.7033 31.4706 15.4831 31.5669 15.2131 31.5473C14.9435 31.5278 14.705 31.4013 14.4713 31.2325C14.0185 30.9053 13.3371 30.2279 12.1287 29.0168L12.1273 29.0154C11.4985 28.38 10.9088 27.769 10.4653 27.2961C10.2438 27.06 10.0567 26.8562 9.91869 26.6999C9.84998 26.6221 9.79072 26.553 9.74452 26.4961C9.71179 26.4558 9.65466 26.3849 9.61664 26.314C9.50376 26.107 9.41215 25.8857 9.4081 25.6262C9.40413 25.3718 9.48568 25.1433 9.58324 24.9268L9.58322 24.9268L9.58508 24.9228C9.71391 24.6435 9.91302 24.4151 10.1804 24.261C10.4436 24.1093 10.7455 24.0452 11.061 24.0452C11.1808 24.0452 11.3473 24.0478 11.5485 24.1365C11.724 24.214 11.8965 24.3436 12.0965 24.5184C12.4987 24.8701 13.1675 25.5468 14.4293 26.8266L14.4298 26.8271L15.2742 27.6859L18.472 24.4592L18.4729 24.4583C19.4512 23.476 20.3611 22.5711 21.0394 21.9055C21.3782 21.5729 21.6606 21.2988 21.8651 21.1042C21.967 21.0073 22.0519 20.9279 22.1158 20.8702C22.1474 20.8417 22.1771 20.8154 22.2029 20.794C22.2156 20.7834 22.231 20.7709 22.2475 20.7587L22.2484 20.758C22.2581 20.7508 22.2964 20.7223 22.3468 20.6987Z" fill="#9795CE" stroke="#9795CE"/>
</svg>
