<svg width="45" height="49" viewBox="0 0 45 49" fill="none" xmlns="http://www.w3.org/2000/svg">
<path fill-rule="evenodd" clip-rule="evenodd" d="M22.3756 0.140513C25.223 3.04182 46.0185 24.4119 44.0607 27.7127C43.4106 28.8086 41.0565 29.5655 38.1149 30.0883V44.6932C38.1149 45.3422 37.5887 45.8684 36.9396 45.8684H7.95096C7.30187 45.8684 6.77568 45.3423 6.77568 44.6932V30.8673C3.29926 30.3575 0.486706 29.4126 0.0489625 27.7127C-1.1179 23.1812 18.9318 2.93605 21.7321 0.136189C21.9157 -0.0473982 22.1938 -0.0448034 22.3756 0.140513Z" fill="#32314E"/>
<path d="M17.6606 30.975C17.6606 30.7154 17.8711 30.5049 18.1308 30.5049H27.0629C27.3225 30.5049 27.533 30.7154 27.533 30.975V48.8392H17.6606V30.975Z" fill="white"/>
</svg>
