<svg width="42" height="35" viewBox="0 0 42 35" fill="none" xmlns="http://www.w3.org/2000/svg">
<path fill-rule="evenodd" clip-rule="evenodd" d="M32.5728 14L21 3.49768L9.42719 14H9.42978V31.5H32.5703V14H32.5728ZM36.427 17.4977V31.5C36.427 33.433 34.7003 35 32.5703 35H9.42978C7.29976 35 5.57303 33.433 5.57303 31.5V17.4977L2.72518 20.0821L0 17.609L18.2752 1.02426C19.7801 -0.341419 22.2199 -0.341419 23.7248 1.02426L42 17.609L39.2748 20.0821L36.427 17.4977Z" fill="white"/>
<path d="M33.0703 14.5H33.8678L32.9088 13.6297L21.336 3.12741L21 2.82248L20.664 3.12741L9.09118 13.6297L8.13221 14.5H8.92978V31.5V32H9.42978H32.5703H33.0703V31.5V14.5ZM36.763 17.1274L35.927 16.3688V17.4977V31.5C35.927 33.1123 34.4709 34.5 32.5703 34.5H9.42978C7.52913 34.5 6.07303 33.1123 6.07303 31.5V17.4977V16.3687L5.23702 17.1274L2.72518 19.4069L0.744016 17.609L18.6112 1.39452C19.9255 0.201827 22.0745 0.201827 23.3888 1.39452L41.256 17.609L39.2748 19.4069L36.763 17.1274Z" stroke="black" stroke-opacity="0.34"/>
</svg>
