<svg width="42" height="45" viewBox="0 0 42 45" fill="none" xmlns="http://www.w3.org/2000/svg">
<path d="M28.1894 0.0342865C28.0609 0.0526581 27.6751 0.116955 27.3169 0.172066C26.4259 0.319027 25.0665 0.759918 24.1939 1.19162C22.3936 2.10096 22.513 1.98155 10.9948 13.4263C2.84749 21.5185 0.156229 24.2373 0.0735624 24.4853C-0.312216 25.661 0.891045 26.7999 2.01164 26.3131C2.21371 26.2213 6.26438 22.2716 13.0339 15.5481C24.396 4.26866 24.3592 4.29622 25.884 3.65326C28.5385 2.52348 31.5512 2.73473 33.9853 4.22274C35.0049 4.84733 36.2724 6.11489 36.897 7.13445C38.3758 9.55933 38.5963 12.5629 37.4849 15.2266C36.8511 16.7146 36.7776 16.7973 26.582 27.1214C13.3186 40.5594 13.8973 39.9991 12.942 40.4583C11.1601 41.3309 9.38735 41.3309 7.61461 40.4583C6.21846 39.7786 5.08868 38.4192 4.62023 36.8577C4.50083 36.4628 4.4549 36.0035 4.4549 35.2503C4.4549 34.0563 4.58349 33.4868 5.10705 32.4488C5.41016 31.8518 6.0072 31.2364 13.5758 23.6954C22.7151 14.602 22.2466 15.0062 23.5509 15.0062C25.0757 15.0062 26.1136 16.0533 26.1044 17.5688C26.1044 18.8731 26.5637 18.3404 18.0306 26.8918C9.7272 35.2228 10.1589 34.7268 10.3242 35.5902C10.4069 36.0403 10.958 36.5914 11.4081 36.674C12.2715 36.8394 11.7571 37.2894 20.2075 28.8391C27.7394 21.298 27.9874 21.0408 28.3548 20.3244C28.8692 19.3048 29.0437 18.5884 29.0437 17.477C29.0345 16.7422 28.9886 16.4115 28.7957 15.8236C28.0609 13.5365 26.0034 12.0577 23.5969 12.0669C22.5497 12.0761 21.769 12.2598 20.8413 12.719C20.2167 13.0313 19.8493 13.362 16.708 16.4299C14.8158 18.2853 10.9856 22.0879 8.21165 24.8894C2.59949 30.5291 2.58112 30.5567 1.95653 32.3754C0.872675 35.5626 1.63505 38.9703 3.97727 41.386C6.58587 44.0865 10.6641 44.8121 14.081 43.1955C15.4588 42.5434 15.5414 42.4699 27.1974 30.6761C39.1015 18.6343 39.028 18.7078 39.9006 16.9718C40.3231 16.1359 40.7089 15.0337 40.9201 14.0142C41.1498 12.9487 41.1498 10.5238 40.9201 9.4583C40.4241 7.15281 39.4229 5.26066 37.8431 3.61651C36.1438 1.86214 34.2333 0.77829 31.8635 0.245548C31.1195 0.0710297 28.7406 -0.0667496 28.1894 0.0342865Z" fill="#33324F"/>
</svg>
