<svg width="264" height="263" viewBox="0 0 264 263" fill="none" xmlns="http://www.w3.org/2000/svg">
<path d="M142.347 14.9104V29.8208H177.412H212.528L186.564 55.7855L160.599 81.7501L155.458 78.4081C144.301 71.0558 131.807 66.1199 117.41 63.3949C110.984 62.2124 94.9934 61.9553 87.4868 62.9322C32.9353 70.1303 -5.72892 119.695 0.69798 174.349C4.60553 207.872 25.0688 237.127 55.2495 252.397C64.607 257.127 73.9132 260.109 85.0189 262.063C92.6797 263.4 109.698 263.246 117.667 261.806C161.37 253.888 194.482 219.337 200.24 175.686C201.474 166.379 201.011 151.623 199.161 142.934C196.487 130.08 191.5 117.946 184.764 107.715L181.422 102.573L207.387 76.6086L233.352 50.6439V85.7605V120.826H248.262H263.172V60.4128V0H202.76H142.347V14.9104ZM113.297 96.4034C127.488 99.3855 137.822 104.938 148.002 115.17C156.229 123.396 161.01 130.903 164.404 141.186C167.077 149.207 167.797 153.68 167.746 162.729C167.746 171.675 166.718 177.948 164.095 185.3C157.052 204.889 140.599 220.674 120.804 226.947C110.932 230.083 98.0783 230.803 88.1038 228.9C57.8202 222.936 35.866 198.463 33.398 167.871C30.4674 131.983 56.4834 100.26 92.4741 95.6322C97.3071 94.9638 108.516 95.4266 113.297 96.4034Z" fill="black"/>
</svg>
