<svg width="87" height="88" viewBox="0 0 87 88" fill="none" xmlns="http://www.w3.org/2000/svg">
<path d="M58.6432 0.038063C49.6934 1.01279 42.5159 5.56743 38.0676 13.0817C35.7459 17.0161 34.5763 21.4644 34.594 26.338C34.594 30.1306 35.2674 33.3915 36.7384 36.7587C38.0321 39.7715 39.4854 41.8805 42.3387 44.9642C45.6882 48.5795 47.4427 51.9468 48.4883 56.7318C48.8427 58.3977 48.7896 63.484 48.382 65.3271C47.5136 69.3324 45.5818 73.1604 43.0653 75.8719L42.0728 76.9353L41.6829 76.4036C40.8145 75.2339 38.7233 73.2313 37.5891 72.4692C36.0827 71.4591 33.9028 70.5729 32.0243 70.2008C30.8191 69.9527 29.7204 69.9172 25.5556 69.9704C21.0187 70.0413 20.4161 70.0944 19.211 70.4489C15.702 71.4768 12.7955 73.568 10.6334 76.5808C10.3853 76.9353 10.3676 76.9175 9.72956 76.315C7.88644 74.5605 5.81292 71.1401 4.80275 68.2336C3.08369 63.2713 3.24319 57.228 5.24581 52.443C8.61305 44.3084 15.2412 39.3108 23.9783 38.3006C26.1582 38.0347 26.7076 37.7689 26.9202 36.7942C27.062 36.1562 26.6189 35.1106 26.105 34.827C25.5556 34.5434 22.4188 34.7384 20.4339 35.1814C10.1372 37.5031 2.25074 45.8503 0.319002 56.466C-0.106334 58.8053 -0.106334 63.4308 0.319002 65.593C1.43551 71.2641 4.04069 75.9783 8.24088 79.9303C14.8159 86.1154 23.9783 88.4725 32.804 86.2395C46.1844 82.8545 54.762 68.9779 51.9087 55.3672C51.2707 52.3721 49.6757 48.615 47.9921 46.2225L47.1769 45.0528L47.5667 44.2553C48.1516 43.0679 49.5516 41.3665 50.6681 40.5336C51.9973 39.5234 53.9468 38.6196 55.4532 38.3006C56.9596 37.9816 64.1371 37.9284 65.7499 38.2297C68.9044 38.7968 71.7223 40.6754 73.53 43.4223L74.2034 44.4148L73.7781 44.7515C72.9274 45.4427 70.0741 46.9314 68.4259 47.5162C66.5651 48.1719 64.722 48.5795 62.4889 48.8276C60.9117 49.0049 60.504 49.2175 60.1496 50.0859C59.9901 50.4758 59.9901 50.7417 60.1496 51.2379C60.4509 52.1417 61.018 52.4607 62.3294 52.4253C65.484 52.3367 69.188 51.3797 72.378 49.8024C79.7505 46.1516 84.9254 39.2753 86.5913 30.8926C87.1053 28.3052 87.1407 23.8746 86.6622 21.4644C85.5457 15.7932 82.9405 11.0791 78.7403 7.12699C75.0541 3.67113 70.2159 1.22546 65.3777 0.392509C63.7295 0.108955 59.9015 -0.0859909 58.6432 0.038063ZM66.0866 4.25598C69.2589 5.05349 71.8463 6.27632 74.3275 8.15489C79.0062 11.6639 82.143 16.8388 83.1 22.5986C83.5431 25.2569 83.4013 29.1027 82.7456 31.6547C82.1785 33.8523 81.2215 36.1385 80.0872 38.017C79.2543 39.3816 77.2694 41.9337 77.0213 41.9337C76.9504 41.9337 76.6845 41.5969 76.4187 41.1716C74.5579 38.2474 70.9248 35.7308 67.2208 34.8447C65.9094 34.5434 65.1296 34.4903 60.7699 34.4903C56.3925 34.4903 55.6304 34.5434 54.3012 34.8447C52.3163 35.3232 49.8529 36.5461 48.2402 37.8398C47.0351 38.8145 45.4046 40.6399 44.9261 41.526C44.8198 41.7564 44.6426 41.9337 44.5539 41.9337C44.2881 41.9337 42.1437 39.1513 41.2753 37.6803C37.4827 31.2116 37.1815 22.829 40.4955 16.2008C42.6045 11.9829 46.5034 8.084 50.7213 5.97504C52.2809 5.19526 55.1873 4.23825 56.9773 3.91925C59.3166 3.51163 63.8181 3.67114 66.0866 4.25598ZM32.0597 73.9047C34.6294 74.6136 37.2878 76.4745 38.7233 78.5657L39.255 79.3278L38.3157 79.9303C36.2244 81.2595 33.5838 82.3406 30.8191 82.9786C28.7988 83.4571 23.6239 83.4571 21.6035 82.9786C18.8388 82.3406 16.1982 81.2595 14.107 79.9303L13.1677 79.3278L13.7525 78.4771C15.4184 76.0314 18.4844 74.1351 21.5149 73.6566C22.0466 73.568 24.4037 73.5326 26.743 73.5503C30.0394 73.5857 31.2445 73.6744 32.0597 73.9047Z" fill="#FFFCFC"/>
<path d="M59.1215 9.34234C53.5213 10.3348 49.7641 15.4388 50.4199 21.1631C51.2174 28.1635 56.8354 33.8878 61.9571 32.9308C63.818 32.5763 65.1826 31.7965 66.8839 30.0775C70.4638 26.4621 72.0234 21.2517 70.836 16.9452C69.879 13.4185 66.7421 10.3348 63.3217 9.51956C62.0812 9.236 60.1849 9.14739 59.1215 9.34234ZM63.4103 13.3653C66.7776 14.8717 68.3194 18.5048 67.2384 22.4037C66.1396 26.3912 63.3749 29.3508 60.752 29.3508C57.367 29.3508 53.6985 23.9455 53.9998 19.3909C54.1947 16.4844 55.8961 14.216 58.6076 13.2058C59.8659 12.745 62.1698 12.8159 63.4103 13.3653Z" fill="#FFFCFC"/>
<path d="M23.5529 45.0351C18.4312 46.4883 15.1348 51.5038 15.8437 56.785C16.4817 61.57 19.2641 65.8766 22.9149 67.6843C24.3682 68.4109 24.4568 68.4286 26.1936 68.4286C27.8949 68.4286 28.0544 68.3931 29.3659 67.7729C34.5762 65.274 37.9257 57.5648 36.1535 52.1063C35.1256 48.8986 32.6445 46.3466 29.5076 45.2301C28.2139 44.7693 24.8644 44.6629 23.5529 45.0351ZM29.0469 49.0049C31.2976 50.0505 32.7863 52.2304 32.9812 54.7469C33.3002 58.9294 30.1811 64.1043 26.9025 64.7955C24.6694 65.274 22.1351 63.36 20.5579 60.0105C19.654 58.0965 19.335 56.6787 19.4236 54.9596C19.5831 51.8405 21.6921 49.2353 24.6517 48.491C25.8746 48.1897 27.7886 48.4024 29.0469 49.0049Z" fill="#FFFCFC"/>
</svg>
