<svg width="33" height="36" viewBox="0 0 33 36" fill="none" xmlns="http://www.w3.org/2000/svg">
<path fill-rule="evenodd" clip-rule="evenodd" d="M27.1189 8.91353C25.8579 8.91353 24.7618 6.75738 24.7618 5.60151V2.26727V2.25617L30.6546 8.8913H27.1189V8.91353ZM30.6546 26.6961C30.6546 27.8187 29.535 28.919 28.2975 28.919H10.6189C9.38142 28.919 8.26178 27.8187 8.26178 26.6961V4.46788C8.26178 3.33423 9.38142 2.24505 10.6189 2.24505H22.4046C22.3811 4.8013 22.4046 6.71292 22.4046 6.71292C22.4046 9.01355 24.6086 11.1252 27.1189 11.1252H30.6546V26.685V26.6961ZM22.4046 33.3646H4.72607C3.48857 33.3646 2.36892 32.2643 2.36892 31.1418V8.91353C2.36892 7.77988 3.3707 6.72404 4.6082 6.72404L5.89286 6.67958V26.685C5.89286 28.9634 8.10857 31.1307 10.6071 31.1307H24.75C24.75 32.2532 23.6186 33.3535 22.3929 33.3535L22.4046 33.3646ZM24.7618 0.0222245H10.6189C8.12035 0.0222245 5.90464 2.17837 5.90464 4.46788L4.53749 4.4901C2.03892 4.4901 0 6.6129 0 8.90241V31.1307C0 33.4091 2.21571 35.5763 4.71429 35.5763H22.3929C24.8796 35.5763 27.1071 33.4091 27.1071 31.1307H28.2857C30.7725 31.1307 33 28.9634 33 26.685V8.92464L24.75 0L24.7618 0.0222245ZM24.7618 15.602H14.1546C13.4946 15.602 12.9761 16.091 12.9761 16.7023C12.9761 17.3136 13.4946 17.8026 14.1546 17.8026H24.7618C25.41 17.8026 25.9404 17.3025 25.9404 16.6912C25.9404 16.0688 25.41 15.5798 24.7618 15.5798V15.602ZM24.7618 21.148H14.1546C13.4946 21.148 12.9761 21.637 12.9761 22.2483C12.9761 22.8595 13.4946 23.3486 14.1546 23.3486H24.7618C25.41 23.3486 25.9404 22.8484 25.9404 22.2371C25.9404 21.6147 25.41 21.1257 24.7618 21.1257V21.148Z" fill="white"/>
</svg>
