<svg width="28" height="30" viewBox="0 0 28 30" fill="none" xmlns="http://www.w3.org/2000/svg">
<path d="M8.00482 19.9442C8.12528 19.8106 8.25047 19.6795 8.38274 19.5635C8.76775 19.218 9.7716 18.4162 10.3125 18.749C10.6337 18.9457 10.5865 19.6064 10.4684 19.8812C10.1755 20.5595 9.42911 21.1319 8.97088 21.6942C8.61186 22.1405 8.17725 22.5414 7.78515 22.96C7.15686 23.6307 6.55454 24.3846 5.87665 24.9974C5.87429 24.9974 0.44166 29.8941 0.44166 29.8941L0.0188599 29.4428L4.60825 23.6383C5.47038 22.7179 6.33015 21.7975 7.19229 20.8797C7.471 20.5872 7.73083 20.2519 8.00482 19.9442Z" fill="url(#paint0_linear_37_37)"/>
<path d="M8.00488 19.9997C6.92781 18.7616 5.97119 17.4202 5.19409 16.0308C4.60123 14.9718 3.2289 12.5032 4.32487 11.3282L5.28385 10.3045C6.18377 9.3463 8.55287 10.2288 11.1842 12.3066L17.127 5.96243C15.6365 3.85192 14.9303 2.09443 15.4736 1.51448L16.6853 0.218419C17.4742 -0.623767 20.6062 1.3531 23.6816 4.63611C26.7545 7.9166 28.6087 11.2627 27.8174 12.1048L26.6057 13.3984C26.0601 13.9783 24.4138 13.2244 22.4391 11.6333L16.4987 17.9774C18.445 20.7889 19.2717 23.318 18.3741 24.2787L17.4151 25.3024C16.2814 26.5128 13.865 24.9368 12.8565 24.2762C11.1157 23.139 9.4528 21.6639 8.00488 19.9997Z" fill="url(#paint1_linear_37_37)"/>
<path d="M27.8552 11.8149C27.175 12.5411 24.1752 10.5213 21.1566 7.29884C18.1379 4.07634 16.2459 0.87654 16.9262 0.147822C17.6065 -0.578374 20.6062 1.44136 23.6249 4.66385C26.6435 7.88635 28.5355 11.0887 27.8552 11.8149Z" fill="url(#paint2_linear_37_37)"/>
<path d="M18.4993 24.1098C17.6537 25.0125 14.0516 22.6347 10.4566 18.7969C6.86164 14.9592 4.6319 11.1139 5.4775 10.2112C6.3231 9.30849 10.074 10.5415 14.1555 14.9668C18.1143 19.2559 19.3449 23.2071 18.4993 24.1098Z" fill="url(#paint3_linear_37_37)"/>
<path d="M10.2842 13.0655L17.1269 5.96243C17.1269 5.96243 18.4213 7.79053 19.4063 8.86217C20.3912 9.93382 22.4438 11.6358 22.4438 11.6358L15.8018 18.7238C15.8018 18.7238 14.3516 18.106 12.6887 16.3309C10.7519 14.2658 10.2842 13.0655 10.2842 13.0655Z" fill="url(#paint4_linear_37_37)"/>
<path opacity="0.2" d="M17.3135 0.75814C17.3986 0.75814 17.8757 0.798485 19.0591 1.60537C19.0638 1.60789 19.0685 1.61041 19.0732 1.61546C20.318 2.42486 21.7707 3.68814 23.1595 5.17079C24.6996 6.81482 25.9987 8.5597 26.7191 9.95158C26.7214 9.95662 26.7238 9.95914 26.7262 9.96419C27.2222 10.8795 27.2623 11.2754 27.2623 11.3737C27.2623 11.3989 27.2647 11.4216 27.2671 11.4468C27.2741 11.5275 27.2718 11.5754 27.2671 11.6007L26.1168 12.8312C26.1049 12.8337 26.0837 12.8362 26.0553 12.8362C25.6089 12.8362 24.5035 12.3621 22.8477 11.0308C22.7202 10.9274 22.5714 10.877 22.4202 10.877C22.2383 10.877 22.0565 10.9526 21.9195 11.0989L16.0121 17.4077C15.7664 17.6699 15.7357 18.086 15.9389 18.386C17.0514 20.0301 17.5616 21.2656 17.7954 22.017L17.8214 22.1002C18.1072 23.0609 18.0221 23.5022 17.9725 23.5778C17.9466 23.6081 17.9253 23.6409 17.904 23.6762C17.8875 23.7039 17.871 23.7266 17.8521 23.7443L16.8931 24.768C16.8033 24.8638 16.6427 24.9899 16.2813 24.9899C15.2799 24.9899 13.8272 24.0368 13.206 23.6308C12.0108 22.8491 10.844 21.896 9.73857 20.7991C9.60158 20.663 9.42915 20.5974 9.25672 20.5974C9.07721 20.5974 8.8977 20.6705 8.75834 20.8143C8.65205 20.9252 8.52922 21.0589 8.41348 21.2001C8.19382 21.4724 7.93872 21.7321 7.66945 22.0044C7.53245 22.1431 7.39546 22.2818 7.26319 22.423C7.0506 22.6499 6.84038 22.8869 6.63725 23.1164C6.23807 23.5678 5.82472 24.0317 5.39956 24.4175L5.40428 24.4251C5.22949 24.5738 4.80197 24.9571 3.66348 25.9834L5.11139 24.1527L6.71756 22.4381L7.67181 21.4169C7.84424 21.2328 8.00722 21.0412 8.16311 20.8521C8.26468 20.7311 8.36861 20.6075 8.47253 20.489C8.72999 20.199 8.73236 19.7477 8.47726 19.4552C7.4238 18.2423 6.51679 16.9589 5.77748 15.6401C4.65552 13.6406 4.32957 12.3672 4.80197 11.8604L5.75858 10.8366C5.88613 10.703 6.11997 10.6727 6.29712 10.6727C6.60655 10.6727 7.00573 10.761 7.45215 10.9249C7.45687 10.9274 7.45923 10.9274 7.46396 10.9299C8.13713 11.167 9.24491 11.6813 10.6999 12.7908C10.8251 12.8866 10.9692 12.932 11.1133 12.932C11.2928 12.932 11.4699 12.8589 11.6069 12.7177L17.5993 6.49963C17.8544 6.23487 17.8852 5.80621 17.6702 5.50111C16.2506 3.49146 15.9223 2.30887 15.9814 2.01385L17.1364 0.780834C17.1435 0.780834 17.1506 0.778312 17.16 0.778312C17.2073 0.773269 17.2474 0.768226 17.2923 0.753097C17.2923 0.760662 17.2994 0.75814 17.3135 0.75814ZM17.3135 0.0016861C17.2356 0.0016861 17.1647 0.0117722 17.101 0.0319444C16.9191 0.0470734 16.7703 0.10759 16.664 0.221058L15.4523 1.51712C14.909 2.09706 15.6153 3.85456 17.1057 5.96507L11.1133 12.1806C9.81652 11.1896 8.64024 10.5492 7.68598 10.2138C7.1687 10.0222 6.69866 9.92132 6.29948 9.92132C5.86015 9.92132 5.50585 10.0449 5.2602 10.3046L4.30122 11.3283C3.20525 12.5008 4.57522 14.9694 5.17044 16.031C5.94282 17.4102 6.89235 18.7441 7.95998 19.9721C7.69543 20.2721 7.4427 20.5949 7.17343 20.8823C6.31366 21.8027 5.45152 22.723 4.58939 23.6409L0 29.4454L0.4228 29.8968C0.4228 29.8968 5.85543 25 5.85779 25C6.53805 24.3872 7.14036 23.6333 7.76629 22.9626C8.15839 22.544 8.59063 22.1456 8.95202 21.6968C9.04414 21.5833 9.14807 21.4699 9.25672 21.3564C10.3763 22.4659 11.5857 23.4593 12.8352 24.2788C13.5792 24.7655 15.0862 25.7489 16.2813 25.7489C16.7089 25.7489 17.0962 25.6228 17.3939 25.3051L18.3528 24.2813C18.4095 24.2208 18.4591 24.1527 18.5016 24.0821C18.8016 23.719 18.8111 22.9374 18.4945 21.8733C18.4851 21.843 18.4757 21.8103 18.4662 21.78C18.1379 20.7235 17.4978 19.3997 16.5128 17.9473L22.4226 11.6385C23.9484 12.869 25.2782 13.5977 26.0553 13.5977C26.2845 13.5977 26.464 13.5347 26.5868 13.4035L27.7985 12.11C27.9473 11.9511 28.0016 11.699 27.9709 11.3788C27.9686 10.9602 27.7442 10.3424 27.3403 9.59353C26.6151 8.19156 25.316 6.40885 23.6626 4.64379C22.1793 3.05272 20.6841 1.77431 19.4417 0.969948C18.5371 0.349655 17.7883 0.0016861 17.3135 0.0016861Z" fill="#424242"/>
<defs>
<linearGradient id="paint0_linear_37_37" x1="4.95216" y1="23.8576" x2="6.10565" y2="24.9396" gradientUnits="userSpaceOnUse">
<stop stop-color="#F5F5F5"/>
<stop offset="0.1455" stop-color="#EFEFEF"/>
<stop offset="0.3368" stop-color="#DFDFDF"/>
<stop offset="0.5535" stop-color="#C3C3C3"/>
<stop offset="0.7872" stop-color="#9E9E9E"/>
<stop offset="1" stop-color="#757575"/>
</linearGradient>
<linearGradient id="paint1_linear_37_37" x1="9.54893" y1="5.61169" x2="23.5143" y2="18.6941" gradientUnits="userSpaceOnUse">
<stop offset="0.0048445" stop-color="#F44336"/>
<stop offset="0.1943" stop-color="#EC3E33"/>
<stop offset="0.4956" stop-color="#D4302C"/>
<stop offset="0.6496" stop-color="#C62828"/>
</linearGradient>
<linearGradient id="paint2_linear_37_37" x1="16.7875" y1="5.9816" x2="27.9946" y2="5.9816" gradientUnits="userSpaceOnUse">
<stop offset="0.0020297" stop-color="#FF5252"/>
<stop offset="0.0742" stop-color="#F34949"/>
<stop offset="0.2674" stop-color="#D93535"/>
<stop offset="0.4653" stop-color="#C62727"/>
<stop offset="0.6692" stop-color="#BB1F1F"/>
<stop offset="0.8882" stop-color="#B71C1C"/>
</linearGradient>
<linearGradient id="paint3_linear_37_37" x1="5.16986" y1="17.2745" x2="18.865" y2="17.5445" gradientUnits="userSpaceOnUse">
<stop offset="0.0020297" stop-color="#FF5252"/>
<stop offset="0.1867" stop-color="#E13B3B"/>
<stop offset="0.3739" stop-color="#CA2A2A"/>
<stop offset="0.5502" stop-color="#BC2020"/>
<stop offset="0.7029" stop-color="#B71C1C"/>
</linearGradient>
<linearGradient id="paint4_linear_37_37" x1="13.4668" y1="9.60879" x2="19.238" y2="15.0147" gradientUnits="userSpaceOnUse">
<stop offset="0.0048445" stop-color="#F44336"/>
<stop offset="0.1454" stop-color="#EC3E32"/>
<stop offset="0.3689" stop-color="#D42F29"/>
<stop offset="0.5918" stop-color="#B71C1C"/>
</linearGradient>
</defs>
</svg>
