<svg width="87" height="87" viewBox="0 0 87 87" fill="none" xmlns="http://www.w3.org/2000/svg">
<path fill-rule="evenodd" clip-rule="evenodd" d="M43.5 87C67.525 87 87 67.525 87 43.5C87 19.475 67.525 0 43.5 0C19.475 0 0 19.475 0 43.5C0 67.525 19.475 87 43.5 87ZM39.15 26.1C39.15 24.9463 39.6083 23.8399 40.4241 23.0241C41.2399 22.2083 42.3463 21.75 43.5 21.75C44.6537 21.75 45.7601 22.2083 46.5759 23.0241C47.3917 23.8399 47.85 24.9463 47.85 26.1V39.15H60.9C62.0537 39.15 63.1601 39.6083 63.9759 40.4241C64.7917 41.2399 65.25 42.3463 65.25 43.5C65.25 44.6537 64.7917 45.7601 63.9759 46.5759C63.1601 47.3917 62.0537 47.85 60.9 47.85H47.85V60.9C47.85 62.0537 47.3917 63.1601 46.5759 63.9759C45.7601 64.7917 44.6537 65.25 43.5 65.25C42.3463 65.25 41.2399 64.7917 40.4241 63.9759C39.6083 63.1601 39.15 62.0537 39.15 60.9V47.85H26.1C24.9463 47.85 23.8399 47.3917 23.0241 46.5759C22.2083 45.7601 21.75 44.6537 21.75 43.5C21.75 42.3463 22.2083 41.2399 23.0241 40.4241C23.8399 39.6083 24.9463 39.15 26.1 39.15H39.15V26.1Z" fill="#9795CE"/>
</svg>
