<svg width="38" height="40" viewBox="0 0 38 40" fill="none" xmlns="http://www.w3.org/2000/svg">
<path d="M19 2C9.61116 2 2 10.0589 2 20C2 29.941 9.61116 38 19 38C28.3888 38 36 29.941 36 20C36 10.0589 28.3888 2 19 2Z" stroke="white" stroke-width="3.38364" stroke-linecap="round" stroke-linejoin="round"/>
<path d="M5.86066 31.4222C5.86066 31.4222 9.64999 26.3 19 26.3C28.35 26.3 32.1394 31.4222 32.1394 31.4222" stroke="white" stroke-width="3.38364" stroke-linecap="round" stroke-linejoin="round"/>
<path d="M19 20C21.8167 20 24.1 17.5824 24.1 14.6C24.1 11.6177 21.8167 9.20001 19 9.20001C16.1832 9.20001 13.9 11.6177 13.9 14.6C13.9 17.5824 16.1832 20 19 20Z" stroke="white" stroke-width="3.38364" stroke-linecap="round" stroke-linejoin="round"/>
</svg>
