<svg width="17" height="18" viewBox="0 0 17 18" fill="none" xmlns="http://www.w3.org/2000/svg">
<path d="M0 7.42233C0 11.517 3.14474 14.8447 7.00671 14.8447C8.78597 14.8447 10.4135 14.136 11.6514 12.9745L16.1168 17.7047C16.1996 17.7924 16.3065 17.8362 16.4168 17.8362C16.5271 17.8362 16.634 17.7924 16.7168 17.7047C16.8823 17.5294 16.8823 17.2482 16.7168 17.0728L12.2479 12.3425C13.3445 11.0312 14.0134 9.31079 14.0134 7.42233C14.0134 3.32763 10.8687 0 7.00671 0C3.14474 0 0 3.32763 0 7.42233ZM13.1686 7.42233C13.1686 11.0203 10.4032 13.9497 7.00671 13.9497C3.61025 13.9497 0.844805 11.0203 0.844805 7.42233C0.844805 3.8244 3.61025 0.894917 7.00671 0.894917C10.4032 0.894917 13.1686 3.82075 13.1686 7.42233Z" fill="black"/>
</svg>
