<svg width="76" height="76" viewBox="0 0 76 76" fill="none" xmlns="http://www.w3.org/2000/svg">
<path d="M0.428581 0.431889L0 0.86047V16.4076V31.9547L0.428581 32.3833L0.857162 32.8119H5.79323H10.7145V34.3932C10.7145 35.8859 10.7441 36.0632 11.1874 36.9795C11.4387 37.5263 11.9559 38.2652 12.3106 38.6347C15.1333 41.4574 19.9068 40.5855 21.6359 36.9499C22.0645 36.0632 22.0941 35.8711 22.0941 34.3932V32.8119H27.0154H31.9514L32.38 32.3833L32.8086 31.9547V27.0187V22.0974H34.4047C35.8678 22.0974 36.0599 22.0678 36.9466 21.6392C40.9221 19.7624 41.4985 14.3238 37.9811 11.7523C36.8136 10.8952 35.7791 10.6144 34.183 10.6883L32.8086 10.7474V5.81131V0.86047L32.38 0.431889L31.9514 0.00330734H16.4043H0.857162L0.428581 0.431889ZM30.2962 7.80643C30.2962 12.9198 30.311 13.112 30.5918 13.4223C31.0795 13.9396 31.5081 13.9543 32.7643 13.5405C34.2421 13.0529 35.0402 13.0529 36.0303 13.5405C37.922 14.4864 38.3802 16.9544 36.9614 18.5357C35.8973 19.7032 34.7889 19.9101 32.7938 19.2747C31.5081 18.8756 31.0647 18.8904 30.5918 19.3633C30.311 19.6441 30.2962 19.8806 30.2962 24.9792V30.2995H24.9759C19.8773 30.2995 19.6408 30.3143 19.36 30.5951C18.8871 31.068 18.8723 31.5114 19.2714 32.7971C19.9068 34.7922 19.6999 35.9006 18.5324 36.9647C16.9511 38.3835 14.4831 37.9253 13.5372 36.0337C13.0495 35.0435 13.0495 34.2454 13.5372 32.7676C13.951 31.5114 13.9363 31.0828 13.419 30.5951C13.1087 30.3143 12.9165 30.2995 7.80313 30.2995H2.51237V16.4076V2.51568H16.4043H30.2962V7.80643Z" fill="white"/>
<path d="M30.2962 7.80643C30.2962 12.9198 30.311 13.112 30.5918 13.4223C31.0795 13.9396 31.5081 13.9543 32.7643 13.5405C34.2421 13.0529 35.0402 13.0529 36.0303 13.5405C37.922 14.4864 38.3802 16.9544 36.9614 18.5357C35.8973 19.7032 34.7889 19.9101 32.7938 19.2747C31.5081 18.8756 31.0647 18.8904 30.5918 19.3633C30.311 19.6441 30.2962 19.8806 30.2962 24.9792V30.2995H24.9759C19.8773 30.2995 19.6408 30.3143 19.36 30.5951C18.8871 31.068 18.8723 31.5114 19.2714 32.7971C19.9068 34.7922 19.6999 35.9006 18.5324 36.9647C16.9511 38.3835 14.4831 37.9253 13.5372 36.0337C13.0495 35.0435 13.0495 34.2454 13.5372 32.7676C13.951 31.5114 13.9363 31.0828 13.419 30.5951C13.1087 30.3143 12.9165 30.2995 7.80313 30.2995H2.51237V16.4076V2.51568H16.4043H30.2962V7.80643Z" fill="#5C59B2"/>
<path d="M43.6561 12.713C42.8581 13.0381 42.8581 13.0381 42.8581 19.4668C42.8581 23.5014 42.9172 25.5261 43.0206 25.7625C43.3753 26.5606 43.8778 26.6049 45.8286 26.0138C47.1882 25.6 48.0011 25.6739 48.9617 26.3241C51.0159 27.6838 50.7794 30.9351 48.5479 31.94C47.735 32.3095 46.6858 32.2799 45.3261 31.8513C44.0404 31.4375 43.597 31.4671 43.1537 32.0287C42.8729 32.3982 42.8581 32.6494 42.8581 37.6298V42.8614H37.7299C32.1731 42.8614 32.0106 42.891 31.6559 43.6595C31.4785 44.0142 31.4933 44.2063 31.8332 45.2999C32.2766 46.7334 32.3209 47.7236 31.9367 48.5512C31.6411 49.2163 30.9169 49.8961 30.1928 50.2064C28.8923 50.7385 27.0597 50.1473 26.2912 48.9502C25.6705 47.9749 25.5966 47.1768 26.0104 45.832C26.4686 44.295 26.5277 43.9255 26.306 43.5265C25.9513 42.8762 25.6705 42.8467 19.3157 42.891L13.3156 42.9353L12.9757 43.2752L12.6357 43.6152V59.2805V74.9607L13.0495 75.3154L13.4633 75.67H44.129H74.8095L75.2381 75.2415L75.6667 74.8129V44.1324V13.4667L75.312 13.0529L74.9573 12.6391L59.4545 12.6095C50.9124 12.5948 43.8187 12.6391 43.6561 12.713ZM73.1543 28.9695V42.8614H69.0606H64.9522V41.2801C64.9522 39.7875 64.9226 39.6101 64.4792 38.6939C63.2231 36.0337 60.3856 34.7627 57.6072 35.6199C55.952 36.1372 54.7401 37.2012 53.9716 38.8269C53.6169 39.5954 53.5726 39.8466 53.5726 41.2801V42.8614H49.4789H45.3705V38.7234V34.5854L46.0059 34.6741C46.3458 34.7184 46.7153 34.7923 46.8188 34.8219C47.2178 34.9401 48.9764 34.5706 49.7302 34.1864C50.7055 33.7135 51.8878 32.5312 52.3755 31.541C53.1145 30.0779 53.1292 28.0976 52.4199 26.5606C51.3115 24.1369 48.5035 22.7477 45.932 23.3388L45.3705 23.4719V19.3782C45.3705 17.117 45.4148 15.2254 45.4739 15.181C45.5182 15.1219 51.7696 15.0776 59.3658 15.0776H73.1543V28.9695ZM60.1343 37.9845C61.4792 38.3687 62.5137 39.7136 62.5137 41.0732C62.5137 41.4427 62.3363 42.2703 62.1294 42.9058C61.7156 44.162 61.7304 44.5905 62.2477 45.0782C62.558 45.359 62.7501 45.3738 67.8636 45.3738H73.1543V59.2657V73.1577H59.2624H45.3705V69.0492V64.9555H47.0404C48.6218 64.9555 48.7548 64.926 49.6858 64.4678C52.8928 62.8865 53.9125 58.7189 51.7992 55.8371C50.6169 54.2114 48.7548 53.3986 46.6119 53.5464L45.3705 53.6351V49.5118V45.3738H50.6908C55.7894 45.3738 56.0259 45.359 56.3067 45.0782C56.7796 44.6053 56.7943 44.162 56.3953 42.8762C55.9372 41.4427 55.9224 40.6446 56.2919 39.8318C56.9865 38.3392 58.6269 37.5559 60.1343 37.9845ZM23.3207 45.9945C23.2468 46.3492 23.2173 47.0881 23.2616 47.6349C23.4242 49.6744 24.6656 51.4626 26.572 52.3641C27.4735 52.7927 27.6804 52.837 29.04 52.837C30.3258 52.837 30.6214 52.7927 31.3603 52.438C32.8382 51.7582 33.9466 50.502 34.5081 48.9207C34.7446 48.2409 34.8333 46.4822 34.6559 45.7728L34.5525 45.3738H38.7053H42.8581V50.635V55.8962L43.2867 56.3248C43.8187 56.842 44.129 56.8568 45.5182 56.3839C46.8335 55.9405 47.5872 55.9258 48.474 56.3248C49.3607 56.7238 49.6415 56.9898 50.0405 57.8618C50.6612 59.1771 50.4248 60.5663 49.4198 61.586C48.4001 62.5909 47.3065 62.7535 45.4148 62.1476C43.9517 61.6894 43.8187 61.6894 43.2867 62.2067L42.8581 62.6353V67.8965V73.1577H28.9662H15.0742V59.3692C15.0742 51.773 15.1186 45.5216 15.1777 45.4773C15.222 45.4181 17.1137 45.3738 19.3748 45.3738H23.4685L23.3207 45.9945Z" fill="white"/>
</svg>
