<svg width="100" height="65" viewBox="0 0 100 65" fill="none" xmlns="http://www.w3.org/2000/svg">
<path d="M74.2492 64.2914V47.922L51.241 56.1067L74.2492 64.2914ZM49.7492 55.576L73.2573 47.2135L49.7492 38.8509L26.241 47.2135L49.7492 55.576ZM51.241 38.3202L74.2492 46.5049V30.1355L51.241 38.3202ZM25.2492 46.5049L48.2573 38.3202L25.2492 30.1355V46.5049ZM48.2573 56.1067L25.2492 47.922V64.2914L48.2573 56.1067ZM1.49184 17.7865L50 35.0424L98.5082 17.7865L50 0.530701L1.49184 17.7865Z" fill="white" stroke="white"/>
<path d="M13.0074 26.7529V58.7734H11.3921V26.3639L13.0074 26.7529Z" fill="white" stroke="white"/>
<path d="M14.3151 59.5454C14.3151 61.1308 13.3029 62.2185 12.2724 62.2185C11.242 62.2185 10.2297 61.1308 10.2297 59.5454C10.2297 57.9601 11.242 56.8723 12.2724 56.8723C13.3029 56.8723 14.3151 57.9601 14.3151 59.5454Z" fill="white" stroke="white"/>
</svg>
