<svg width="233" height="71" viewBox="0 0 233 71" fill="none" xmlns="http://www.w3.org/2000/svg">
<mask id="path-1-outside-1_195_456" maskUnits="userSpaceOnUse" x="-1" y="-1" width="235" height="73" fill="black">
<rect fill="white" x="-1" y="-1" width="235" height="73"/>
<path d="M19.7477 71C16.2143 71 12.9477 70.1 9.94766 68.3C6.94766 66.4333 4.54766 63.9667 2.74766 60.9C1.01432 57.8333 0.147656 54.4667 0.147656 50.8L0.347656 0.799997C0.347656 0.53333 0.48099 0.399996 0.747656 0.399996H11.9477C12.2143 0.399996 12.3477 0.53333 12.3477 0.799997V50.8C12.3477 53.0667 13.0477 55 14.4477 56.6C15.9143 58.1333 17.681 58.9 19.7477 58.9C21.881 58.9 23.6477 58.1333 25.0477 56.6C26.5143 55 27.2477 53.0667 27.2477 50.8V0.799997C27.2477 0.53333 27.381 0.399996 27.6477 0.399996H38.8477C39.1143 0.399996 39.2477 0.53333 39.2477 0.799997L39.4477 50.8C39.4477 54.5333 38.5477 57.9333 36.7477 61C35.0143 64.0667 32.6477 66.5 29.6477 68.3C26.7143 70.1 23.4143 71 19.7477 71ZM48.2438 70C47.7104 70 47.4438 69.7667 47.4438 69.3L47.3438 1.2C47.3438 0.666663 47.6104 0.399996 48.1438 0.399996H57.1438L74.0438 39.8L73.5438 1.2C73.5438 0.666663 73.8438 0.399996 74.4438 0.399996H84.3438C84.7438 0.399996 84.9438 0.666663 84.9438 1.2L85.0438 69.4C85.0438 69.8 84.8771 70 84.5438 70H75.7438L58.4438 33.2L59.1438 69.2C59.1438 69.7333 58.8438 70 58.2438 70H48.2438ZM94.2305 70C93.8971 70 93.7305 69.8333 93.7305 69.5L93.8305 0.799997C93.8305 0.53333 93.9638 0.399996 94.2305 0.399996H105.43C105.697 0.399996 105.83 0.53333 105.83 0.799997L105.93 69.5C105.93 69.8333 105.797 70 105.53 70H94.2305ZM115.227 70C114.893 70 114.727 69.8333 114.727 69.5L114.927 0.799997C114.927 0.53333 115.06 0.399996 115.327 0.399996H134.527C140.66 0.399996 145.493 2.26666 149.027 6C152.627 9.73333 154.427 14.8 154.427 21.2C154.427 25.9333 153.493 30.0333 151.627 33.5C149.76 36.9667 147.327 39.6333 144.327 41.5C141.327 43.3667 138.06 44.3 134.527 44.3H126.927V69.5C126.927 69.8333 126.76 70 126.427 70H115.227ZM126.927 32.2H134.527C136.66 32.2 138.493 31.2 140.027 29.2C141.627 27.1333 142.427 24.4667 142.427 21.2C142.427 18.6 141.727 16.4667 140.327 14.8C138.927 13.1333 136.993 12.3 134.527 12.3L126.927 12.4V32.2ZM152.83 69.5L165.23 0.799997C165.297 0.53333 165.464 0.399996 165.73 0.399996H180.23C180.497 0.399996 180.664 0.53333 180.73 0.799997L192.63 69.5C192.697 69.8333 192.564 70 192.23 70H181.13C180.864 70 180.697 69.8333 180.63 69.5L179.53 62.2H165.93L164.83 69.5C164.764 69.8333 164.597 70 164.33 70H153.23C152.964 70 152.83 69.8333 152.83 69.5ZM167.93 51.5H177.53L173.43 23.4L172.83 19.7L172.43 23.4L167.93 51.5ZM199.306 70C199.04 70 198.906 69.8333 198.906 69.5L199.006 0.899996C199.006 0.566663 199.173 0.399996 199.506 0.399996H210.606C210.94 0.399996 211.106 0.566663 211.106 0.899996L211.006 57.7H231.606C231.94 57.7 232.106 57.8667 232.106 58.2V69.5C232.106 69.8333 231.94 70 231.606 70H199.306Z"/>
</mask>
<path d="M19.7477 71C16.2143 71 12.9477 70.1 9.94766 68.3C6.94766 66.4333 4.54766 63.9667 2.74766 60.9C1.01432 57.8333 0.147656 54.4667 0.147656 50.8L0.347656 0.799997C0.347656 0.53333 0.48099 0.399996 0.747656 0.399996H11.9477C12.2143 0.399996 12.3477 0.53333 12.3477 0.799997V50.8C12.3477 53.0667 13.0477 55 14.4477 56.6C15.9143 58.1333 17.681 58.9 19.7477 58.9C21.881 58.9 23.6477 58.1333 25.0477 56.6C26.5143 55 27.2477 53.0667 27.2477 50.8V0.799997C27.2477 0.53333 27.381 0.399996 27.6477 0.399996H38.8477C39.1143 0.399996 39.2477 0.53333 39.2477 0.799997L39.4477 50.8C39.4477 54.5333 38.5477 57.9333 36.7477 61C35.0143 64.0667 32.6477 66.5 29.6477 68.3C26.7143 70.1 23.4143 71 19.7477 71ZM48.2438 70C47.7104 70 47.4438 69.7667 47.4438 69.3L47.3438 1.2C47.3438 0.666663 47.6104 0.399996 48.1438 0.399996H57.1438L74.0438 39.8L73.5438 1.2C73.5438 0.666663 73.8438 0.399996 74.4438 0.399996H84.3438C84.7438 0.399996 84.9438 0.666663 84.9438 1.2L85.0438 69.4C85.0438 69.8 84.8771 70 84.5438 70H75.7438L58.4438 33.2L59.1438 69.2C59.1438 69.7333 58.8438 70 58.2438 70H48.2438ZM94.2305 70C93.8971 70 93.7305 69.8333 93.7305 69.5L93.8305 0.799997C93.8305 0.53333 93.9638 0.399996 94.2305 0.399996H105.43C105.697 0.399996 105.83 0.53333 105.83 0.799997L105.93 69.5C105.93 69.8333 105.797 70 105.53 70H94.2305ZM115.227 70C114.893 70 114.727 69.8333 114.727 69.5L114.927 0.799997C114.927 0.53333 115.06 0.399996 115.327 0.399996H134.527C140.66 0.399996 145.493 2.26666 149.027 6C152.627 9.73333 154.427 14.8 154.427 21.2C154.427 25.9333 153.493 30.0333 151.627 33.5C149.76 36.9667 147.327 39.6333 144.327 41.5C141.327 43.3667 138.06 44.3 134.527 44.3H126.927V69.5C126.927 69.8333 126.76 70 126.427 70H115.227ZM126.927 32.2H134.527C136.66 32.2 138.493 31.2 140.027 29.2C141.627 27.1333 142.427 24.4667 142.427 21.2C142.427 18.6 141.727 16.4667 140.327 14.8C138.927 13.1333 136.993 12.3 134.527 12.3L126.927 12.4V32.2ZM152.83 69.5L165.23 0.799997C165.297 0.53333 165.464 0.399996 165.73 0.399996H180.23C180.497 0.399996 180.664 0.53333 180.73 0.799997L192.63 69.5C192.697 69.8333 192.564 70 192.23 70H181.13C180.864 70 180.697 69.8333 180.63 69.5L179.53 62.2H165.93L164.83 69.5C164.764 69.8333 164.597 70 164.33 70H153.23C152.964 70 152.83 69.8333 152.83 69.5ZM167.93 51.5H177.53L173.43 23.4L172.83 19.7L172.43 23.4L167.93 51.5ZM199.306 70C199.04 70 198.906 69.8333 198.906 69.5L199.006 0.899996C199.006 0.566663 199.173 0.399996 199.506 0.399996H210.606C210.94 0.399996 211.106 0.566663 211.106 0.899996L211.006 57.7H231.606C231.94 57.7 232.106 57.8667 232.106 58.2V69.5C232.106 69.8333 231.94 70 231.606 70H199.306Z" fill="white"/>
<path d="M9.94765 68.3L9.41936 69.1491L9.42622 69.1533L9.43316 69.1575L9.94765 68.3ZM2.74766 60.9L1.87709 61.3921L1.88111 61.3992L1.88524 61.4062L2.74766 60.9ZM0.147659 50.8L-0.852341 50.796V50.8H0.147659ZM0.347656 0.799997L1.34766 0.803997V0.799997H0.347656ZM14.4477 56.6L13.6951 57.2585L13.7097 57.2752L13.725 57.2912L14.4477 56.6ZM25.0477 56.6L24.3105 55.9243L24.3092 55.9257L25.0477 56.6ZM39.2477 0.799997H38.2477L38.2477 0.803997L39.2477 0.799997ZM39.4477 50.8H40.4477L40.4477 50.796L39.4477 50.8ZM36.7477 61L35.8852 60.4938L35.8811 60.5008L35.8771 60.5079L36.7477 61ZM29.6477 68.3L29.1331 67.4425L29.1246 67.4477L29.6477 68.3ZM19.7477 70C16.3937 70 13.3051 69.1483 10.4622 67.4425L9.43316 69.1575C12.5902 71.0517 16.035 72 19.7477 72V70ZM10.476 67.4509C7.61436 65.6704 5.32865 63.3217 3.61007 60.3938L1.88524 61.4062C3.76666 64.6116 6.28095 67.1963 9.41936 69.1491L10.476 67.4509ZM3.61822 60.4079C1.97327 57.4977 1.14766 54.3016 1.14766 50.8H-0.852341C-0.852341 54.6318 0.0553741 58.169 1.87709 61.3921L3.61822 60.4079ZM1.14765 50.804L1.34765 0.803997L-0.652336 0.795997L-0.852333 50.796L1.14765 50.804ZM1.34766 0.799997C1.34766 0.820807 1.34177 1.02009 1.15476 1.2071C0.967751 1.39412 0.768471 1.4 0.747658 1.4V-0.600004C0.460175 -0.600004 0.0608978 -0.527457 -0.259453 -0.207109C-0.579796 0.113236 -0.652344 0.512519 -0.652344 0.799997H1.34766ZM0.747658 1.4H11.9477V-0.600004H0.747658V1.4ZM11.9477 1.4C11.9268 1.4 11.7276 1.39412 11.5406 1.2071C11.3535 1.02009 11.3477 0.820807 11.3477 0.799997H13.3477C13.3477 0.51252 13.2751 0.113237 12.9548 -0.207109C12.6344 -0.527456 12.2351 -0.600004 11.9477 -0.600004V1.4ZM11.3477 0.799997V50.8H13.3477V0.799997H11.3477ZM11.3477 50.8C11.3477 53.2915 12.1245 55.4635 13.6951 57.2585L15.2002 55.9415C13.9708 54.5365 13.3477 52.8419 13.3477 50.8H11.3477ZM13.725 57.2912C15.3747 59.0158 17.4 59.9 19.7477 59.9V57.9C17.962 57.9 16.454 57.2508 15.1703 55.9088L13.725 57.2912ZM19.7477 59.9C22.1532 59.9 24.1908 59.0215 25.7861 57.2743L24.3092 55.9257C23.1045 57.2452 21.6088 57.9 19.7477 57.9V59.9ZM25.7848 57.2757C27.4286 55.4825 28.2477 53.3047 28.2477 50.8H26.2477C26.2477 52.8287 25.6001 54.5175 24.3105 55.9243L25.7848 57.2757ZM28.2477 50.8V0.799997H26.2477V50.8H28.2477ZM28.2477 0.799997C28.2477 0.820807 28.2418 1.02009 28.0548 1.2071C27.8678 1.39411 27.6685 1.4 27.6477 1.4V-0.600004C27.3602 -0.600004 26.9609 -0.527456 26.6405 -0.207108C26.3202 0.113239 26.2477 0.512521 26.2477 0.799997H28.2477ZM27.6477 1.4H38.8477V-0.600004H27.6477V1.4ZM38.8477 1.4C38.8269 1.4 38.6276 1.39412 38.4406 1.2071C38.2535 1.02009 38.2477 0.820808 38.2477 0.799997H40.2477C40.2477 0.512519 40.1751 0.113236 39.8548 -0.20711C39.5344 -0.527457 39.1351 -0.600004 38.8477 -0.600004V1.4ZM38.2477 0.803997L38.4477 50.804L40.4477 50.796L40.2477 0.795997L38.2477 0.803997ZM38.4477 50.8C38.4477 54.3646 37.5906 57.5884 35.8852 60.4938L37.6101 61.5062C39.5047 58.2783 40.4477 54.702 40.4477 50.8H38.4477ZM35.8771 60.5079C34.2282 63.4251 31.9838 65.7321 29.1332 67.4425L30.1622 69.1575C33.3115 67.2679 35.8004 64.7082 37.6182 61.4921L35.8771 60.5079ZM29.1246 67.4477C26.3591 69.1447 23.2423 70 19.7477 70V72C23.5864 72 27.0696 71.0553 30.1707 69.1523L29.1246 67.4477ZM47.4437 69.3H48.4437V69.2985L47.4437 69.3ZM47.3438 1.2H46.3438V1.20147L47.3438 1.2ZM57.1438 0.399996L58.0628 0.00579548L57.8029 -0.600004H57.1438V0.399996ZM74.0437 39.8L73.1247 40.1942L75.0437 39.787L74.0437 39.8ZM73.5437 1.2H72.5437L72.5438 1.21295L73.5437 1.2ZM84.9438 1.2H83.9438V1.20146L84.9438 1.2ZM85.0437 69.4H86.0437V69.3985L85.0437 69.4ZM75.7437 70L74.8388 70.4254L75.1089 71H75.7437V70ZM58.4438 33.2L59.3487 32.7746L57.4439 33.2194L58.4438 33.2ZM59.1438 69.2H60.1438V69.1903L60.1436 69.1806L59.1438 69.2ZM48.2438 69C48.1009 69 48.1805 68.9659 48.3023 69.0724C48.3656 69.1279 48.4068 69.194 48.4282 69.2503C48.4474 69.3006 48.4437 69.3238 48.4437 69.3H46.4437C46.4437 69.7248 46.5713 70.2154 46.9852 70.5776C47.3737 70.9175 47.8533 71 48.2438 71V69ZM48.4437 69.2985L48.3438 1.19853L46.3438 1.20147L46.4437 69.3015L48.4437 69.2985ZM48.3438 1.2C48.3438 1.08747 48.3712 1.18676 48.2509 1.3071C48.1305 1.42745 48.0312 1.4 48.1438 1.4V-0.600004C47.7229 -0.600004 47.2237 -0.494123 46.8366 -0.107109C46.4496 0.279904 46.3438 0.779186 46.3438 1.2H48.3438ZM48.1438 1.4H57.1438V-0.600004H48.1438V1.4ZM56.2247 0.794197L73.1247 40.1942L74.9628 39.4058L58.0628 0.00579548L56.2247 0.794197ZM75.0437 39.787L74.5437 1.18705L72.5438 1.21295L73.0438 39.813L75.0437 39.787ZM74.5437 1.2C74.5437 1.15793 74.5499 1.16483 74.5363 1.20112C74.5205 1.24329 74.4874 1.29912 74.4331 1.34741C74.3813 1.39342 74.3387 1.40744 74.3341 1.40879C74.3329 1.40915 74.3646 1.4 74.4438 1.4V-0.600004C74.0167 -0.600004 73.5097 -0.507662 73.1044 -0.147412C72.6767 0.232789 72.5437 0.74668 72.5437 1.2H74.5437ZM74.4438 1.4H84.3438V-0.600004H74.4438V1.4ZM84.3438 1.4C84.3337 1.4 84.2777 1.39829 84.2001 1.36381C84.1167 1.32674 84.0445 1.26763 83.9937 1.19999C83.9706 1.16908 83.956 1.14194 83.9474 1.12286C83.939 1.10407 83.9362 1.09292 83.9361 1.09253C83.936 1.09219 83.9381 1.10039 83.9401 1.11903C83.9421 1.1376 83.9438 1.16422 83.9438 1.2H85.9438C85.9438 0.837174 85.8808 0.382728 85.5938 -1.90735e-06C85.2661 -0.436833 84.7878 -0.600004 84.3438 -0.600004V1.4ZM83.9438 1.20146L84.0437 69.4015L86.0437 69.3985L85.9438 1.19853L83.9438 1.20146ZM84.0437 69.4C84.0437 69.4858 84.0221 69.3639 84.1505 69.2098C84.2189 69.1278 84.3049 69.0685 84.3911 69.034C84.4712 69.002 84.5291 69 84.5437 69V71C84.9174 71 85.3628 70.8792 85.687 70.4902C85.9821 70.1361 86.0437 69.7142 86.0437 69.4H84.0437ZM84.5437 69H75.7437V71H84.5437V69ZM76.6487 69.5746L59.3487 32.7746L57.5388 33.6254L74.8388 70.4254L76.6487 69.5746ZM57.4439 33.2194L58.1439 69.2194L60.1436 69.1806L59.4436 33.1806L57.4439 33.2194ZM58.1438 69.2C58.1438 69.2421 58.1376 69.2352 58.1512 69.1989C58.167 69.1567 58.2001 69.1009 58.2544 69.0526C58.3062 69.0066 58.3488 68.9926 58.3534 68.9912C58.3546 68.9908 58.3229 69 58.2437 69V71C58.6708 71 59.1778 70.9077 59.5831 70.5474C60.0108 70.1672 60.1438 69.6533 60.1438 69.2H58.1438ZM58.2437 69H48.2438V71H58.2437V69ZM93.7305 69.5L92.7305 69.4985V69.5H93.7305ZM93.8305 0.799997L94.8305 0.801453V0.799997H93.8305ZM105.83 0.799997H104.83V0.801453L105.83 0.799997ZM105.93 69.5H106.93V69.4985L105.93 69.5ZM94.2305 69C94.2303 69 94.2306 69 94.2305 69C94.2303 69 94.2307 69 94.2305 69C94.2305 69 94.2305 69 94.2306 69C94.2306 69 94.2307 69 94.2308 69C94.2311 69 94.2315 69 94.2319 69C94.2329 69.0001 94.2344 69.0001 94.2364 69.0003C94.2404 69.0005 94.2466 69.0011 94.2547 69.0022C94.2708 69.0045 94.2961 69.0094 94.3279 69.0201C94.3952 69.0425 94.4821 69.0874 94.5626 69.1679C94.7329 69.3382 94.7305 69.5125 94.7305 69.5H92.7305C92.7305 69.8208 92.8114 70.2451 93.1484 70.5821C93.4854 70.9191 93.9097 71 94.2305 71V69ZM94.7305 69.5015L94.8305 0.801453L92.8305 0.798541L92.7305 69.4985L94.7305 69.5015ZM94.8305 0.799997C94.8305 0.820807 94.8246 1.02009 94.6376 1.2071C94.4506 1.39412 94.2513 1.4 94.2305 1.4V-0.600004C93.943 -0.600004 93.5437 -0.527457 93.2234 -0.207109C92.903 0.113236 92.8305 0.512519 92.8305 0.799997H94.8305ZM94.2305 1.4H105.43V-0.600004H94.2305V1.4ZM105.43 1.4C105.41 1.4 105.21 1.39412 105.023 1.2071C104.836 1.02009 104.83 0.820808 104.83 0.799997H106.83C106.83 0.512519 106.758 0.113236 106.438 -0.20711C106.117 -0.527457 105.718 -0.600004 105.43 -0.600004V1.4ZM104.83 0.801453L104.93 69.5015L106.93 69.4985L106.83 0.798541L104.83 0.801453ZM104.93 69.5C104.93 69.5598 104.914 69.4196 105.05 69.2503C105.123 69.1588 105.218 69.0884 105.321 69.0457C105.417 69.0055 105.495 69 105.53 69V71C105.885 71 106.308 70.8783 106.611 70.4997C106.88 70.1637 106.93 69.7735 106.93 69.5H104.93ZM105.53 69H94.2305V71H105.53V69ZM114.727 69.5L113.727 69.4971V69.5H114.727ZM114.927 0.799997L115.927 0.802908V0.799997H114.927ZM149.027 6L148.3 6.68741L148.307 6.69413L149.027 6ZM151.627 33.5L152.507 33.9741L151.627 33.5ZM144.327 41.5L143.798 40.6509L144.327 41.5ZM126.927 44.3V43.3H125.927V44.3H126.927ZM126.927 32.2H125.927V33.2H126.927V32.2ZM140.027 29.2L139.236 28.5878L139.233 28.5916L140.027 29.2ZM140.327 14.8L141.092 14.1568L140.327 14.8ZM134.527 12.3V11.2999L134.513 11.3001L134.527 12.3ZM126.927 12.4L126.913 11.4001L125.927 11.4131V12.4H126.927ZM115.227 69C115.226 69 115.227 69 115.227 69C115.226 69 115.227 69 115.227 69C115.227 69 115.227 69 115.227 69C115.227 69 115.227 69 115.227 69C115.227 69 115.228 69 115.228 69C115.229 69.0001 115.231 69.0001 115.233 69.0003C115.237 69.0005 115.243 69.0011 115.251 69.0022C115.267 69.0045 115.292 69.0094 115.324 69.0201C115.391 69.0425 115.478 69.0874 115.559 69.1679C115.729 69.3382 115.727 69.5125 115.727 69.5H113.727C113.727 69.8208 113.807 70.2451 114.144 70.5821C114.481 70.9191 114.906 71 115.227 71V69ZM115.727 69.5029L115.927 0.802908L113.927 0.797086L113.727 69.4971L115.727 69.5029ZM115.927 0.799997C115.927 0.820807 115.921 1.02009 115.734 1.2071C115.547 1.39412 115.347 1.4 115.327 1.4V-0.600004C115.039 -0.600004 114.64 -0.527457 114.319 -0.207109C113.999 0.113236 113.927 0.512519 113.927 0.799997H115.927ZM115.327 1.4H134.527V-0.600004H115.327V1.4ZM134.527 1.4C140.443 1.4 144.992 3.19179 148.3 6.68738L149.753 5.31261C145.995 1.34153 140.877 -0.600004 134.527 -0.600004V1.4ZM148.307 6.69413C151.687 10.1996 153.427 14.995 153.427 21.2H155.427C155.427 14.605 153.566 9.26701 149.746 5.30586L148.307 6.69413ZM153.427 21.2C153.427 25.8011 152.52 29.7317 150.746 33.0259L152.507 33.9741C154.467 30.335 155.427 26.0655 155.427 21.2H153.427ZM150.746 33.0259C148.952 36.357 146.634 38.8866 143.798 40.6509L144.855 42.3491C148.019 40.38 150.567 37.5764 152.507 33.9741L150.746 33.0259ZM143.798 40.6509C140.957 42.419 137.873 43.3 134.527 43.3V45.3C138.247 45.3 141.696 44.3144 144.855 42.3491L143.798 40.6509ZM134.527 43.3H126.927V45.3H134.527V43.3ZM125.927 44.3V69.5H127.927V44.3H125.927ZM125.927 69.5C125.927 69.5125 125.924 69.3382 126.094 69.1679C126.175 69.0874 126.262 69.0425 126.329 69.0201C126.361 69.0094 126.386 69.0045 126.402 69.0022C126.41 69.0011 126.417 69.0005 126.421 69.0003C126.423 69.0001 126.424 69.0001 126.425 69C126.426 69 126.426 69 126.426 69C126.426 69 126.426 69 126.426 69C126.426 69 126.427 69 126.427 69C126.426 69 126.427 69 126.427 69C126.426 69 126.427 69 126.427 69V71C126.747 71 127.172 70.9191 127.509 70.5821C127.846 70.2451 127.927 69.8208 127.927 69.5H125.927ZM126.427 69H115.227V71H126.427V69ZM126.927 33.2H134.527V31.2H126.927V33.2ZM134.527 33.2C137.029 33.2 139.136 32.0049 140.82 29.8084L139.233 28.5916C137.85 30.3951 136.29 31.2 134.527 31.2V33.2ZM140.817 29.8122C142.584 27.5303 143.427 24.6319 143.427 21.2H141.427C141.427 24.3015 140.669 26.7363 139.236 28.5878L140.817 29.8122ZM143.427 21.2C143.427 18.4125 142.672 16.0371 141.092 14.1568L139.561 15.4432C140.781 16.8962 141.427 18.7875 141.427 21.2H143.427ZM141.092 14.1568C139.476 12.2322 137.245 11.3 134.527 11.3V13.3C136.742 13.3 138.378 14.0345 139.561 15.4432L141.092 14.1568ZM134.513 11.3001L126.913 11.4001L126.94 13.3999L134.54 13.2999L134.513 11.3001ZM125.927 12.4V32.2H127.927V12.4H125.927ZM152.83 69.5L151.846 69.3224L151.83 69.4105V69.5H152.83ZM165.23 0.799997L164.26 0.557461L164.252 0.589684L164.246 0.622372L165.23 0.799997ZM180.73 0.799997L181.716 0.629321L181.71 0.593111L181.701 0.557458L180.73 0.799997ZM192.63 69.5L191.645 69.6707L191.647 69.6834L191.65 69.6961L192.63 69.5ZM180.63 69.5L179.642 69.649L179.645 69.6727L179.65 69.6961L180.63 69.5ZM179.53 62.2L180.519 62.051L180.391 61.2H179.53V62.2ZM165.93 62.2V61.2H165.07L164.942 62.051L165.93 62.2ZM164.83 69.5L165.811 69.6961L165.816 69.6727L165.819 69.649L164.83 69.5ZM167.93 51.5L166.943 51.3419L166.758 52.5H167.93V51.5ZM177.53 51.5V52.5H178.687L178.52 51.3556L177.53 51.5ZM173.43 23.4L174.42 23.2556L174.419 23.2478L174.418 23.2399L173.43 23.4ZM172.83 19.7L173.818 19.5399L171.836 19.5925L172.83 19.7ZM172.43 23.4L173.418 23.5581L173.422 23.5329L173.425 23.5075L172.43 23.4ZM153.815 69.6776L166.215 0.977622L164.246 0.622372L151.846 69.3224L153.815 69.6776ZM166.201 1.04253C166.196 1.06005 166.161 1.17579 166.03 1.28086C165.896 1.38845 165.766 1.4 165.73 1.4V-0.600004C165.428 -0.600004 165.082 -0.521791 164.781 -0.280871C164.483 -0.0424652 164.331 0.273273 164.26 0.557461L166.201 1.04253ZM165.73 1.4H180.23V-0.600004H165.73V1.4ZM180.23 1.4C180.195 1.4 180.065 1.38845 179.931 1.28087C179.799 1.17579 179.765 1.06006 179.76 1.04254L181.701 0.557458C181.63 0.273268 181.478 -0.0424681 181.18 -0.280873C180.879 -0.521791 180.533 -0.600004 180.23 -0.600004V1.4ZM179.745 0.970673L191.645 69.6707L193.616 69.3293L181.716 0.629321L179.745 0.970673ZM191.65 69.6961C191.659 69.7433 191.595 69.5054 191.8 69.2503C192.009 68.9886 192.265 69 192.23 69V71C192.529 71 193.019 70.9281 193.361 70.4997C193.699 70.0779 193.668 69.59 193.611 69.3039L191.65 69.6961ZM192.23 69H181.13V71H192.23V69ZM181.13 69C181.169 69 181.232 69.0061 181.308 69.0354C181.387 69.0656 181.457 69.1122 181.513 69.1679C181.618 69.2732 181.622 69.3585 181.611 69.3039L179.65 69.6961C179.706 69.9748 179.826 70.3101 180.098 70.5821C180.394 70.8782 180.77 71 181.13 71V69ZM181.619 69.351L180.519 62.051L178.542 62.349L179.642 69.649L181.619 69.351ZM179.53 61.2H165.93V63.2H179.53V61.2ZM164.942 62.051L163.842 69.351L165.819 69.649L166.919 62.349L164.942 62.051ZM163.85 69.3039C163.839 69.3585 163.843 69.2732 163.948 69.1679C164.004 69.1122 164.074 69.0656 164.153 69.0354C164.229 69.0061 164.292 69 164.33 69V71C164.691 71 165.066 70.8782 165.363 70.5821C165.635 70.3101 165.755 69.9748 165.811 69.6961L163.85 69.3039ZM164.33 69H153.23V71H164.33V69ZM153.23 69C153.266 69 153.344 69.0055 153.44 69.0457C153.543 69.0884 153.638 69.1588 153.711 69.2503C153.847 69.4196 153.83 69.5598 153.83 69.5H151.83C151.83 69.7735 151.881 70.1637 152.15 70.4997C152.452 70.8783 152.876 71 153.23 71V69ZM167.93 52.5H177.53V50.5H167.93V52.5ZM178.52 51.3556L174.42 23.2556L172.441 23.5444L176.541 51.6444L178.52 51.3556ZM174.418 23.2399L173.818 19.5399L171.843 19.8601L172.443 23.5601L174.418 23.2399ZM171.836 19.5925L171.436 23.2925L173.425 23.5075L173.825 19.8075L171.836 19.5925ZM171.443 23.2419L166.943 51.3419L168.918 51.6581L173.418 23.5581L171.443 23.2419ZM198.906 69.5L197.906 69.4985V69.5H198.906ZM199.006 0.899996L200.006 0.901453V0.899996H199.006ZM211.106 0.899996L212.106 0.901756V0.899996H211.106ZM211.006 57.7L210.006 57.6982L210.004 58.7H211.006V57.7ZM199.306 69C199.342 69 199.419 69.0055 199.516 69.0457C199.618 69.0884 199.714 69.1588 199.787 69.2503C199.923 69.4196 199.906 69.5598 199.906 69.5H197.906C197.906 69.7735 197.957 70.1637 198.225 70.4997C198.528 70.8783 198.952 71 199.306 71V69ZM199.906 69.5015L200.006 0.901453L198.006 0.898538L197.906 69.4985L199.906 69.5015ZM200.006 0.899996C200.006 0.899834 200.006 0.900162 200.006 0.900002C200.006 0.899842 200.006 0.900175 200.006 0.900019C200.006 0.900034 200.006 0.900057 200.006 0.900087C200.006 0.900148 200.006 0.900241 200.006 0.900364C200.006 0.900609 200.006 0.90098 200.006 0.901475C200.006 0.90246 200.006 0.903966 200.006 0.905968C200.006 0.909938 200.005 0.916101 200.004 0.92423C200.002 0.940315 199.997 0.965607 199.986 0.997474C199.964 1.06468 199.919 1.15161 199.838 1.2321C199.668 1.40245 199.494 1.4 199.506 1.4V-0.600004C199.185 -0.600004 198.761 -0.519124 198.424 -0.182112C198.087 0.154902 198.006 0.579184 198.006 0.899996H200.006ZM199.506 1.4H210.606V-0.600004H199.506V1.4ZM210.606 1.4C210.606 1.4 210.606 1.4 210.606 1.4C210.606 1.39999 210.606 1.4 210.606 1.4C210.606 1.4 210.606 1.4 210.606 1.4C210.606 1.39999 210.606 1.39999 210.606 1.39999C210.606 1.39999 210.605 1.39998 210.605 1.39996C210.604 1.39993 210.602 1.39987 210.6 1.39973C210.596 1.39947 210.59 1.39892 210.582 1.39776C210.566 1.39546 210.541 1.39055 210.509 1.37993C210.442 1.35753 210.355 1.3126 210.274 1.2321C210.194 1.15161 210.149 1.06468 210.126 0.997474C210.116 0.965607 210.111 0.940315 210.108 0.92423C210.107 0.916101 210.107 0.909938 210.107 0.905968C210.106 0.903966 210.106 0.90246 210.106 0.901475C210.106 0.90098 210.106 0.900609 210.106 0.900364C210.106 0.900241 210.106 0.900148 210.106 0.900087C210.106 0.900057 210.106 0.900034 210.106 0.900019C210.106 0.900175 210.106 0.899842 210.106 0.900002C210.106 0.900162 210.106 0.899834 210.106 0.899996H212.106C212.106 0.579185 212.025 0.154902 211.688 -0.182111C211.351 -0.519124 210.927 -0.600004 210.606 -0.600004V1.4ZM210.106 0.898235L210.006 57.6982L212.006 57.7018L212.106 0.901756L210.106 0.898235ZM211.006 58.7H231.606V56.7H211.006V58.7ZM231.606 58.7C231.606 58.7 231.606 58.7 231.606 58.7C231.606 58.7 231.606 58.7 231.606 58.7C231.606 58.7 231.606 58.7 231.606 58.7C231.606 58.7 231.606 58.7 231.606 58.7C231.606 58.7 231.605 58.7 231.605 58.7C231.604 58.6999 231.602 58.6999 231.6 58.6997C231.596 58.6995 231.59 58.6989 231.582 58.6978C231.566 58.6955 231.541 58.6906 231.509 58.6799C231.442 58.6575 231.355 58.6126 231.274 58.5321C231.194 58.4516 231.149 58.3647 231.126 58.2975C231.116 58.2656 231.111 58.2403 231.108 58.2242C231.107 58.2161 231.107 58.2099 231.107 58.206C231.106 58.204 231.106 58.2025 231.106 58.2015C231.106 58.201 231.106 58.2006 231.106 58.2004C231.106 58.2002 231.106 58.2001 231.106 58.2001C231.106 58.2001 231.106 58.2 231.106 58.2C231.106 58.2002 231.106 58.1998 231.106 58.2C231.106 58.2002 231.106 58.1998 231.106 58.2H233.106C233.106 57.8792 233.025 57.4549 232.688 57.1179C232.351 56.7809 231.927 56.7 231.606 56.7V58.7ZM231.106 58.2V69.5H233.106V58.2H231.106ZM231.106 69.5C231.106 69.5125 231.104 69.3382 231.274 69.1679C231.355 69.0874 231.442 69.0425 231.509 69.0201C231.541 69.0094 231.566 69.0045 231.582 69.0022C231.59 69.0011 231.596 69.0005 231.6 69.0003C231.602 69.0001 231.604 69.0001 231.605 69C231.605 69 231.606 69 231.606 69C231.606 69 231.606 69 231.606 69C231.606 69 231.606 69 231.606 69C231.606 69 231.606 69 231.606 69C231.606 69 231.606 69 231.606 69V71C231.927 71 232.351 70.9191 232.688 70.5821C233.025 70.2451 233.106 69.8208 233.106 69.5H231.106ZM231.606 69H199.306V71H231.606V69Z" fill="white" mask="url(#path-1-outside-1_195_456)"/>
</svg>
