<svg width="90" height="55" viewBox="0 0 90 55" fill="none" xmlns="http://www.w3.org/2000/svg">
<path d="M23.4439 0.0333939C19.8649 0.463326 16.875 1.87135 14.3852 4.31121C12.1734 6.47162 10.9063 8.77175 10.2505 11.792C9.98373 13.0603 9.98373 15.8979 10.2505 17.1662C10.9063 20.1864 12.1845 22.4973 14.3852 24.647C16.6194 26.8289 19.0646 28.1079 22.2213 28.7421C23.5217 29 26.445 29 27.801 28.7421C30.802 28.1617 33.2918 26.8719 35.5148 24.7437C37.76 22.6048 39.0938 20.2187 39.7496 17.1662C40.0163 15.8979 40.0163 13.0603 39.7496 11.792C39.3161 9.80359 38.5269 7.96563 37.3932 6.3104C36.693 5.28931 34.5255 3.18264 33.4919 2.527C31.7023 1.37693 29.7683 0.592304 27.8677 0.237612C26.9674 0.0656395 24.222 -0.0633411 23.4439 0.0333939Z" fill="white"/>
<path d="M19.0313 32.3856C12.8069 33.1165 7.19385 36.5237 3.58149 41.7796C1.45853 44.8536 0.246999 48.4865 0.0358149 52.3667C-0.0308749 53.5597 -0.0197599 53.6995 0.202539 54.1186C0.358149 54.4196 0.580448 54.6346 0.880551 54.785C1.31403 55 1.48076 55 25 55C48.5192 55 48.686 55 49.1194 54.785C49.4196 54.6346 49.6419 54.4196 49.7975 54.1186C50.0198 53.6995 50.0309 53.5597 49.9642 52.3667C49.6752 47.0678 47.5856 42.4245 43.7843 38.6196C40.183 35.0189 35.537 32.8263 30.4574 32.3211C28.7791 32.1599 20.5763 32.2029 19.0313 32.3856Z" fill="white"/>
<path d="M63.4439 0.0333939C59.8649 0.463326 56.875 1.87135 54.3852 4.31121C52.1734 6.47162 50.9063 8.77175 50.2505 11.792C49.9837 13.0603 49.9837 15.8979 50.2505 17.1662C50.9063 20.1864 52.1845 22.4973 54.3852 24.647C56.6194 26.8289 59.0646 28.1079 62.2213 28.7421C63.5217 29 66.445 29 67.801 28.7421C70.802 28.1617 73.2918 26.8719 75.5148 24.7437C77.76 22.6048 79.0938 20.2187 79.7496 17.1662C80.0163 15.8979 80.0163 13.0603 79.7496 11.792C79.3161 9.80359 78.5269 7.96563 77.3932 6.3104C76.693 5.28931 74.5255 3.18264 73.4919 2.527C71.7023 1.37693 69.7683 0.592304 67.8677 0.237612C66.9674 0.0656395 64.222 -0.0633411 63.4439 0.0333939Z" fill="white"/>
<path d="M59.0313 32.3856C52.8069 33.1165 47.1938 36.5237 43.5815 41.7796C41.4585 44.8536 40.247 48.4865 40.0358 52.3667C39.9691 53.5597 39.9802 53.6995 40.2025 54.1186C40.3581 54.4196 40.5804 54.6346 40.8806 54.785C41.314 55 41.4808 55 65 55C88.5192 55 88.686 55 89.1194 54.785C89.4196 54.6346 89.6419 54.4196 89.7975 54.1186C90.0198 53.6995 90.0309 53.5597 89.9642 52.3667C89.6752 47.0678 87.5856 42.4245 83.7843 38.6196C80.183 35.0189 75.537 32.8263 70.4574 32.3211C68.7791 32.1599 60.5763 32.2029 59.0313 32.3856Z" fill="white"/>
</svg>
